<?xml version="1.0"?>
<svg width="600" height="800" xmlns="http://www.w3.org/2000/svg">
 <!-- Created with Method Draw - http://github.com/duopixel/Method-Draw/ -->

 <g>
  <title>background</title>
  <rect x="-1" y="-1" width="602" height="802" id="canvas_background" fill="#ffffff"/>
 </g>
 <g stroke="null">
  <title>Layer 1</title>
  <text font-weight="bold" stroke="#000" xml:space="preserve" text-anchor="left" font-family="'Palatino Linotype', 'Book Antiqua', Palatino, serif" font-size="26" id="svg_1" y="239.5" x="7" stroke-width="0" fill="#000000">Thu, 12 Nov 2015</text>
  <line stroke="#000" stroke-linecap="undefined" stroke-linejoin="undefined" id="svg_2" y2="272.501566" x2="484.634969" y1="272.501566" x1="115.365051" fill="none"/>
  <line stroke="#000" stroke-linecap="undefined" stroke-linejoin="undefined" id="svg_3" y2="560.500234" x2="600.13496" y1="560.500234" x1="-0.134979" fill="none"/>
  <g stroke="null" id="svg_10" transform="scale(2.05)">
   <!-- Created with Inkscape (http://www.inkscape.org/) -->

  </g>
  <g stroke="null" id="svg_71" transform="translate(340,280)">
    <path d="M62.781,0.0062768c-1.621,0.18889-7.737,6.4392-19.093,25.311,3.0187,0.032,5.663,1.6919,7.0938,4.1247,11.41-20.557,13.346-28.772,12.25-29.404-0.0685-0.039435-0.14194-0.043841-0.25-0.031248zm-19.187,29.467c-2.2942,0-4.1562,1.8647-4.1562,4.156s1.862,4.156,4.1562,4.156,4.1562-1.8647,4.1562-4.156-1.862-4.156-4.1562-4.156zm-7.2188,0.0625c-23.477,0.41497-31.531,2.8316-31.531,4.0935,0,1.2609,8.0532,3.6795,31.531,4.0935-0.68785-1.2069-1.0938-2.6066-1.0938-4.0935,0-1.4859,0.40594-2.8856,1.0938-4.0935zm14.406,8.2495c-1.4238,2.4358-4.0448,4.0887-7.0625,4.1247,12.105,20.107,18.216,25.878,19.312,25.248,1.0943-0.63196-0.84705-8.8283-12.25-29.373zm-50.468,2.062c-0.063218-0.0073-0.11601,0.0082-0.15625,0.03125-0.6438,0.373,0.50625,5.156,7.0312,16.999,0.9162-1.38,2.4383-2.304,4.1875-2.438-6.5661-10.832-10.114-14.483-11.062-14.592zm65.062,0c-0.06321-0.0073-0.11601,0.0082-0.15625,0.03125-0.643,0.37298,0.50625,5.1567,7.0312,16.999,0.9172-1.3799,2.4393-2.3034,4.1875-2.4373-6.566-10.833-10.113-14.484-11.061-14.593zm-25.938,3.0311,0,57.121,8.3125,0,0-43.935c-2.379-3.518-5.134-7.856-8.31-13.186zm-27.655,14.28c-1.5295,0-2.75,1.2223-2.75,2.7498s1.2205,2.7811,2.75,2.7811,2.7812-1.2536,2.7812-2.7811-1.2518-2.7498-2.7812-2.7498zm65.094,0c-1.5295,0-2.7812,1.2223-2.7812,2.7498s1.2518,2.7811,2.7812,2.7811c1.5295,0,2.7812-1.2536,2.7812-2.7811s-1.2518-2.7498-2.7812-2.7498zm-60.125,0.344c0.35844,0.73095,0.59375,1.5372,0.59375,2.4061,0,0.87594-0.2293,1.7014-0.59375,2.4373,13.471-0.28298,18.156-1.6671,18.156-2.4061,0-0.74195-4.6902-2.1544-18.156-2.4373zm65.094,0c0.35744,0.73095,0.5625,1.5372,0.5625,2.4061,0,0.87594-0.20306,1.7014-0.5625,2.4373,13.471-0.283,18.156-1.667,18.156-2.406,0-0.742-4.69-2.154-18.156-2.437zm-74.656,5.468c-6.523,11.842-7.675,16.627-7.0312,16.999,0.644,0.371,4.2152-3.01,11.219-14.562-1.7502-0.135-3.2694-1.056-4.1875-2.437zm65.062,0c-6.524,11.842-7.675,16.623-7.031,16.999,0.643,0.37,4.216-3.007,11.219-14.562-1.752-0.135-3.27-1.056-4.188-2.437zm-57.688,2.5311c-2.15,3.6138-3.9764,6.4613-5.5312,8.7182l-0.0308,25.78h5.5312l0.03125-34.498zm65.094,0c-2.1496,3.6137-4.0086,6.4613-5.5625,8.7182v25.78h5.5312l0.03125-34.498z"/>

  </g>
  <g stroke="null" id="svg_86">
   <path id="svg_83" fill="#000000" d="m172.481232,618.368408c-1.783066,0 -3.273926,1.426819 -3.273926,3.2099c0,0.780029 0.373901,1.560425 0.834396,2.118469c0.043365,1.424622 0,2.855225 0,4.365479l-2.182709,0.064209l-84.22715,0l0,8.217285c0.391678,0.646606 1.29393,1.685913 2.246895,2.953064c0.95298,1.267151 1.963692,2.730835 2.632111,4.301208c1.291405,1.986877 1.283951,101.624695 1.283951,101.624695c0,0 0.09874,10.259705 4.172791,10.400085l42.948303,-0.256653c-0.121048,-1.975037 0.296616,-3.328857 0.962936,-4.301392c-1.455139,-2.200195 -2.311218,-4.808533 -2.311218,-7.639465c0,-7.684326 6.246521,-13.930908 13.93103,-13.930908c1.349014,0 2.617279,0.218811 3.851807,0.577759l8.15303,-85.125854c0.075821,-0.135071 0.121597,-0.252441 0.192688,-0.385193l2.054337,0l0,-4.108704l4.10849,0c0,0 6.97702,0.096069 7.125961,-11.427185l0,-5.392578c0.460648,-0.558105 0.706223,-1.274292 0.706223,-2.054321c0,-1.783081 -1.426865,-3.2099 -3.209946,-3.2099l0,0zm-0.064163,0.320984c1.086319,0 1.990173,0.90387 1.990173,1.990112c0,1.086243 -0.903854,1.925964 -1.990173,1.925964c-1.086136,0 -1.925812,-0.839722 -1.925812,-1.925964c0,-1.086243 0.839676,-1.990112 1.925812,-1.990112z"/>
   <path id="svg_84" fill="#000000" d="m170.558762,624.424927c0.792709,1.895203 1.897598,-0.798462 2.690216,1.096863l31.748276,75.792175c0.792694,1.895203 0.795013,1.889465 2.690247,1.096924l5.680664,-2.390015l-33.341614,-79.579285l-3.787109,1.593323l-1.534164,-3.812012l-0.796661,-1.893555c0,0 -2.345886,0.991089 -3.78714,1.593323c-1.895248,0.792603 -1.88945,0.794983 -1.096878,2.690186c0.792679,1.895264 0.700302,1.817505 1.534164,3.812073zm0.181503,-3.210571c-0.421234,-1.001221 0.061386,-2.184875 1.062622,-2.606079c1.001236,-0.421265 2.125732,0.086243 2.546967,1.087463c0.421249,1.001221 -0.0271,2.10083 -1.02832,2.522095c-1.001221,0.421265 -2.160034,-0.002197 -2.581268,-1.003479z"/>
   <path id="svg_85" fill="#000000" d="m162.647247,743.428772c0,7.129272 -5.779358,12.90863 -12.908585,12.90863c-7.129227,0 -12.908585,-5.779358 -12.908585,-12.90863c0,-7.129211 5.779358,-12.908569 12.908585,-12.908569c7.129227,0 12.908585,5.779358 12.908585,12.908569z"/>
  </g>
  <text font-weight="bold" stroke="#000" xml:space="preserve" text-anchor="left" font-family="'Palatino Linotype', 'Book Antiqua', Palatino, serif" font-size="20" id="svg_87" y="787.500234" x="120.257828" fill-opacity="null" stroke-opacity="null" stroke-width="0" fill="#000000">Today</text>
  <text font-weight="bold" stroke="#000" xml:space="preserve" text-anchor="left" font-family="'Palatino Linotype', 'Book Antiqua', Palatino, serif" font-size="20" id="svg_88" y="784.500234" x="391.782623" fill-opacity="null" stroke-opacity="null" stroke-width="0" fill="#000000">Tomorrow</text>
  <g stroke="null" id="svg_156">
   <g stroke="null" transform="matrix(1.7452868079692143,0,0,1.7452868079692143,-555.6739641753439,-97.06512265835295) " id="svg_147">
    <polygon stroke="null" id="svg_148" points="558.6869506835938,461.03261613845825 532.0640258789062,447.9506154060364 532.0640258789062,473.9946217536926 572.2039794921875,493.4806447029114 572.2039794921875,442.3376393318176 "/>
    <polygon stroke="null" id="svg_149" points="520.2760009765625,441.3896412849426 532.0980224609375,422.9446949958801 572.2360229492188,440.8706593513489 558.3369750976562,460.0966420173645 "/>
    <polygon stroke="null" id="svg_150" points="590.197998046875,414.5757374763489 572.6419677734375,408.42873430252075 532.8939819335938,422.40871477127075 551.02099609375,430.4506764411926 "/>
    <polygon stroke="null" id="svg_151" points="591.31396484375,414.96572160720825 551.968994140625,430.871666431427 572.6419677734375,440.0426564216614 612.29296875,422.3116993904114 "/>
    <polygon stroke="null" id="svg_152" points="613.9769897460938,423.0216908454895 619.9409790039062,434.2456593513489 613.9769897460938,431.9846730232239 "/>
    <path stroke="null" id="svg_153" d="m597.796997,429.866699l0.143982,10.905945l-1.380005,-1.655975l-2.226013,3.26297l-1.867004,-1.314972l-2.80896,3.603973l-0.433044,-10.975983l-16.242981,7.253998l0,52.533997l40.138977,-19.486023l0,-50.972931l-15.324951,6.845001zm1.137939,17.805939c1.135071,-0.515991 1.845032,-0.309998 2.141052,0.609985l0.662964,2.037994l0.940002,-1.037994c0.153015,-0.143982 0.223022,-0.211975 0.207031,-0.204987c0.098022,-0.04599 0.140015,0.040009 0.125,0.261017c-0.015015,0.182983 -0.059998,0.376984 -0.137024,0.579987l-2.320984,5.894012l-4.192017,1.64798c-0.167969,0.060028 -0.245972,-0.006989 -0.230957,-0.195984c0.010986,-0.153015 0.05896,-0.275024 0.142944,-0.365997l0.848999,-0.957031l-0.862976,-2.73999c-0.466003,-1.479004 -0.960999,-2.41098 -1.487,-2.789978c-0.22699,-0.171021 -0.669983,-0.247009 -1.336975,-0.230011l5.499939,-2.509003zm-13.908936,23.007996c-0.169006,-0.360992 -0.237976,-0.733002 -0.21405,-1.109985c0.029053,-0.419006 0.218018,-1.032013 0.563049,-1.83902l1.228943,-2.815979l-0.953979,-0.303009c-0.132935,-0.050018 -0.195007,-0.109009 -0.190979,-0.175995c0.020996,-0.296021 0.142029,-0.507019 0.363037,-0.634003l4.786987,-2.59201l1.699951,4.347015c0.059021,0.169983 0.087036,0.30899 0.078003,0.426971c-0.010986,0.180023 -0.098938,0.313019 -0.254944,0.39801l-0.884033,-0.291992l-2.789001,6.588989c-0.411011,0.957001 -0.642029,1.828003 -0.697021,2.609009c-0.029968,0.436005 -0.02301,0.877014 0.02002,1.322998l-2.755981,-5.931zm9.501038,3.677002l-4.927063,2.924988c-0.880005,0.522003 -1.255981,-0.158997 -1.124023,-2.044983c0.048035,-0.700012 0.222046,-1.457001 0.51709,-2.270996c0.18396,-0.505005 0.615967,-1.520996 1.296936,-3.03299l4.729004,-2.628021l-0.491943,7.052002zm-1.77002,-13.319l-4.017029,-1.828003l2.867981,-6.681c0.260986,-0.612 0.717041,-1.070007 1.367004,-1.367981c1.065002,-0.490997 1.955017,0.560974 2.674988,3.125977l-2.892944,6.751007zm8.772949,8.195007c-0.315002,0.881989 -0.800964,1.515991 -1.458984,1.906006l-1.820007,1.079987l-0.112976,1.647003c-0.01001,0.139008 -0.078003,0.269012 -0.20105,0.391998c-0.127014,0.14801 -0.261902,0.089996 -0.398987,-0.171997l-1.878967,-3.571991l2.502991,-6.511993c0.049988,-0.123016 0.122986,-0.210999 0.220032,-0.263c0.130981,-0.070007 0.181946,0.087982 0.153992,0.475983l-0.070007,0.993988l3.254944,-1.802979c0.736023,-0.410004 1.30603,-0.820007 1.712036,-1.233002c0.505005,-0.51001 0.987,-1.229004 1.44397,-2.152008l-3.346985,9.212006zm3.491028,-11.257996c-0.049011,0.677979 -0.346008,1.450989 -0.89502,2.333008c-0.520996,0.840973 -1.005981,1.388977 -1.455994,1.63797l-1.910034,1.048004l-1.936951,-4.368988l4.190979,-5.388l1.86499,3.924988c0.117981,0.230011 0.166016,0.502014 0.142029,0.813019z"/>
   </g>
  </g>
  <line fill="none" stroke-width="0.5" stroke-opacity="null" fill-opacity="null" x1="300" y1="592.502544" x2="300" y2="770.495904" id="svg_12" stroke-linejoin="null" stroke-linecap="null" stroke="#000"/>
  <g id="svg_7">
   <text stroke="#000" xml:space="preserve" text-anchor="left" font-family="'Palatino Linotype', 'Book Antiqua', Palatino, serif" font-size="125" id="svg_34" y="146.500722" x="393.014251" fill-opacity="null" stroke-opacity="null" stroke-width="0" fill="#000000" font-style="normal" font-weight="bold">15</text>
   <text fill="#000000" stroke="#000" stroke-width="0" stroke-opacity="null" fill-opacity="null" x="523.869879" y="88.509386" id="svg_14" font-size="60" font-family="'Palatino Linotype', 'Book Antiqua', Palatino, serif" text-anchor="left" xml:space="preserve" font-weight="bold">&#176;C</text>
  </g>
  <g id="svg_8">
   <text stroke="#000" xml:space="preserve" text-anchor="left" font-family="'Palatino Linotype', 'Book Antiqua', Palatino, serif" font-size="50" id="svg_39" y="219.019946" x="393.009861" fill-opacity="null" stroke-opacity="null" stroke-width="0" fill="#000000" font-weight="bold">14&#176;</text>
   <text stroke="#000" xml:space="preserve" text-anchor="left" font-family="'Palatino Linotype', 'Book Antiqua', Palatino, serif" font-size="50" id="svg_21" y="219.019993" x="501.011869" fill-opacity="null" stroke-opacity="null" stroke-width="0" fill="#000000" font-weight="bold">7&#176;</text>
   <line stroke-linecap="undefined" stroke-linejoin="undefined" id="svg_4" y2="227.265625" x2="478.007813" y1="177.265625" x1="478.007813" stroke="#000" fill="none"/>
  </g>
  <text font-weight="bold" xml:space="preserve" text-anchor="left" font-family="'Palatino Linotype', 'Book Antiqua', Palatino, serif" font-size="30" id="svg_11" y="116.5" x="210" fill-opacity="null" stroke-opacity="null" stroke-width="0" stroke="#000" fill="#000000">Cloudy</text>
  <text xml:space="preserve" text-anchor="left" font-family="'Palatino Linotype', 'Book Antiqua', Palatino, serif" font-size="12" id="svg_13" y="13.5" x="430" fill-opacity="null" stroke-opacity="null" stroke-width="0" stroke="#000" fill="#000000">Thu, 12 Nov 2015 9:50 pm EST</text>
  <line stroke-linecap="undefined" stroke-linejoin="undefined" id="svg_17" y2="354.265625" x2="300" y1="304.265625" x1="300" stroke="#000" fill="none" stroke-width="0.5"/>
  <line stroke="#000" fill="none" stroke-opacity="null" fill-opacity="null" x1="-1.673248" y1="394.5" x2="601.673267" y2="394.5" id="svg_5" stroke-linejoin="undefined" stroke-linecap="undefined"/>
  <text fill="#000000" stroke="#000" stroke-width="0" stroke-opacity="null" fill-opacity="null" x="143.25" y="361.5" id="svg_6" font-size="20" font-family="'Palatino Linotype', 'Book Antiqua', Palatino, serif" text-anchor="left" xml:space="preserve" font-weight="bold">Mostly Sunny/Wind</text>
  <g id="svg_18" stroke="null">
   <text xml:space="preserve" text-anchor="left" font-family="'Palatino Linotype', 'Book Antiqua', Palatino, serif" font-size="32" id="svg_15" y="330.262134" x="126.009861" fill-opacity="null" stroke-opacity="null" stroke-width="0" fill="#000000" font-weight="bold" stroke="#000">13&#176;</text>
   <text xml:space="preserve" text-anchor="left" font-family="'Palatino Linotype', 'Book Antiqua', Palatino, serif" font-size="32" id="svg_16" y="330.26218" x="184.011869" fill-opacity="null" stroke-opacity="null" stroke-width="0" fill="#000000" font-weight="bold" stroke="#000">3&#176;</text>
  </g>
  <g stroke="null" id="svg_73" transform="translate(10,280)">
    <path d="M43.031,0v15.344h4v-15.344h-4zm-17.75,4.375l-3.406,2.1562,8.125,13,3.406-2.125-8.125-13.031zm39.781,0.4062l-7.437,13.407,3.531,1.968,7.406-13.406-3.5-1.9688zm-57.281,14.625l-1.9687,3.532,13.376,7.437,1.968-3.531-13.375-7.438zm37.281,0.594c-13.724,0-24.874,11.166-24.874,24.938,0,13.77,11.15,24.94,24.874,24.937,13.716,0,24.813-11.165,24.813-24.937s-11.099-24.938-24.813-24.938zm37.563,0.5l-13.25,7.656,2.031,3.5,13.25-7.656-2.031-3.5zm-82.625,21.281v4.031h15.312v-4.031h-15.312zm74.688,0.25v4.031h15.312v-4.031h-15.312zm-57.219,14.094l-12.969,8.156,2.0938,3.407,13-8.126-2.125-3.437zm54.437,0.875l-1.968,3.531,13.406,7.438,1.937-3.531-13.375-7.438zm-10.187,12.25l-3.469,2,7.656,13.312,3.469-2-7.656-13.312zm-33.438,0.094l-7.406,13.437,3.5,1.969,7.437-13.438-3.531-1.968zm14.5,5.312v15.344h4.031v-15.344h-4.031zm37.719,2c-5.303,0-9.565,4.213-9.875,9.438-2.591,0.249-4.6,2.193-5.063,4.718-0.152-0.016-0.276-0.062-0.437-0.062-2.817,0-5.125,2.31-5.125,5.125,0,1.408,0.671,2.588,1.656,3.25,0.986,0.662,2.198,0.875,3.469,0.875h13.094,7.125,6.562c4.46,0,8.094-3.633,8.094-8.094s-3.633-8.094-8.094-8.094c-0.677,0-1.29,0.185-1.906,0.344-1.127-4.272-4.881-7.5-9.5-7.5zm0,1.906c4.035,0,7.328,2.983,7.938,6.844l0.187,1.156,1.094-0.437c0.693-0.263,1.427-0.406,2.187-0.406,3.432,0,6.188,2.756,6.188,6.187,0,3.432-2.756,6.188-6.188,6.188h-6.562-7.125-13.094c-1.031,0-1.884-0.212-2.406-0.563-0.522-0.35-0.813-0.762-0.813-1.656,0-1.785,1.432-3.219,3.219-3.219,0.296,0,0.576,0.057,0.906,0.156l1.25,0.376v-1.282c0-0.059-0.028-0.061-0.031-0.094,0-0.054-0.005-0.05,0-0.062-0.001-0.005,0.001-0.029,0-0.031,0.05-2.124,1.77-3.813,3.906-3.813-0.031,0,0.066,0.017,0.282,0.032l1.062,0.062-0.031-1.062c-0.012-0.261-0.063-0.343-0.063-0.282,0-4.471,3.62-8.094,8.094-8.094z"/>

  </g>
  <text fill="#000000" stroke="#000" stroke-width="0" stroke-opacity="null" fill-opacity="null" x="493.25" y="361.5" id="svg_74" font-size="20" font-family="'Palatino Linotype', 'Book Antiqua', Palatino, serif" text-anchor="left" xml:space="preserve" font-weight="bold">Partly Cloudy</text>
  <g id="svg_77" stroke="null">
   <text xml:space="preserve" text-anchor="left" font-family="'Palatino Linotype', 'Book Antiqua', Palatino, serif" font-size="32" id="svg_75" y="330.262134" x="476.009861" fill-opacity="null" stroke-opacity="null" stroke-width="0" fill="#000000" font-weight="bold" stroke="#000">10&#176;</text>
   <text xml:space="preserve" text-anchor="left" font-family="'Palatino Linotype', 'Book Antiqua', Palatino, serif" font-size="32" id="svg_76" y="330.26218" x="534.011869" fill-opacity="null" stroke-opacity="null" stroke-width="0" fill="#000000" font-weight="bold" stroke="#000">1&#176;</text>
  </g>
  <text stroke="#000" transform="matrix(33.20000076293945,0,0,2.9506173133850098,-1239.700029373169,-819.2592716217041) " xml:space="preserve" text-anchor="left" font-family="'Palatino Linotype', 'Book Antiqua', Palatino, serif" font-size="30" id="svg_79" y="451.5" x="38.5" fill-opacity="null" stroke-opacity="null" stroke-width="0" fill="#000000"/>
  <text xml:space="preserve" text-anchor="left" font-family="'Palatino Linotype', 'Book Antiqua', Palatino, serif" font-size="30" id="svg_81" y="434.5" x="123.5" fill-opacity="null" stroke-opacity="null" stroke-width="0" stroke="#000" fill="#000000">09:00</text>
  <text xml:space="preserve" text-anchor="left" font-family="'Palatino Linotype', 'Book Antiqua', Palatino, serif" font-size="30" id="svg_82" y="434.5" x="210.5" fill-opacity="null" stroke-opacity="null" stroke-width="0" stroke="#000" fill="#000000">Tanvi Day Off</text>
  <text xml:space="preserve" text-anchor="left" font-family="'Palatino Linotype', 'Book Antiqua', Palatino, serif" font-size="30" id="svg_89" y="434.5" x="4.5" fill-opacity="null" stroke-opacity="null" stroke-width="0" stroke="#000" fill="#000000">Nov, 07</text>
  <text style="cursor: move;" xml:space="preserve" text-anchor="left" font-family="'Palatino Linotype', 'Book Antiqua', Palatino, serif" font-size="30" id="svg_92" y="485.5" x="123.5" fill-opacity="null" stroke-opacity="null" stroke-width="0" stroke="#000" fill="#000000">10:30</text>
  <text style="cursor: move;" xml:space="preserve" text-anchor="left" font-family="'Palatino Linotype', 'Book Antiqua', Palatino, serif" font-size="30" id="svg_93" y="485.5" x="210.5" fill-opacity="null" stroke-opacity="null" stroke-width="0" stroke="#000" fill="#000000">Dia's Shots</text>
  <text xml:space="preserve" text-anchor="left" font-family="'Palatino Linotype', 'Book Antiqua', Palatino, serif" font-size="30" id="svg_94" y="485.5" x="4.5" fill-opacity="null" stroke-opacity="null" stroke-width="0" stroke="#000" fill="#000000">Nov, 08</text>
  <text style="cursor: move;" xml:space="preserve" text-anchor="left" font-family="'Palatino Linotype', 'Book Antiqua', Palatino, serif" font-size="30" id="svg_95" y="535.5" x="123.5" fill-opacity="null" stroke-opacity="null" stroke-width="0" stroke="#000" fill="#000000">10:30</text>
  <text style="cursor: move;" xml:space="preserve" text-anchor="left" font-family="'Palatino Linotype', 'Book Antiqua', Palatino, serif" font-size="30" id="svg_96" y="535.5" x="210.5" fill-opacity="null" stroke-opacity="null" stroke-width="0" stroke="#000" fill="#000000">Tanvi's Shots</text>
  <text xml:space="preserve" text-anchor="left" font-family="'Palatino Linotype', 'Book Antiqua', Palatino, serif" font-size="30" id="svg_97" y="535.5" x="4.5" fill-opacity="null" stroke-opacity="null" stroke-width="0" stroke="#000" fill="#000000">Nov, 08</text>
 </g>
</svg>