<?xml version="1.0" encoding="utf-8"?>
<!-- Generated by IcoMoon.io -->
<!DOCTYPE svg PUBLIC "-//W3C//DTD SVG 1.1//EN" "http://www.w3.org/Graphics/SVG/1.1/DTD/svg11.dtd">
<svg version="1.1" xmlns="http://www.w3.org/2000/svg" xmlns:xlink="http://www.w3.org/1999/xlink" width="83" height="72" viewBox="0 0 83 72">
<path fill="#444444" d="M0 45.738q0-5.59 3.48-9.932t8.93-5.572q1.441-6.609 6.68-10.811t12.059-4.201q6.645 0 11.865 4.096t6.768 10.494h1.020q6.609 0 11.285 4.658t4.676 11.268-4.676 11.303-11.285 4.693h-34.805q-3.234 0-6.205-1.266t-5.115-3.41-3.41-5.115-1.266-6.205zM5.449 45.738q0 4.289 3.094 7.365t7.453 3.076h34.805q4.359 0 7.453-3.076t3.094-7.365-3.094-7.348-7.453-3.059h-5.203q-0.563 0-0.563-0.563l-0.246-1.828q-0.563-5.309-4.447-8.807t-9.193-3.498-9.229 3.516-4.412 8.789l-0.246 1.582q0 0.563-0.598 0.563l-1.688 0.246q-4.043 0.352-6.785 3.34t-2.742 7.066zM38.637 13.043q-0.563 0.527 0.281 0.773 2.426 1.055 4.043 2.074 0.633 0.176 0.844-0.105 3.41-3.234 7.945-3.234t7.857 3.041 3.709 7.506l0.352 2.391h5.309q3.656 0 6.293 2.619t2.637 6.24q0 3.375-2.32 5.871t-5.73 2.883q-0.563 0-0.563 0.598v4.254q0 0.598 0.563 0.598 5.66-0.352 9.563-4.465t3.902-9.738q0-5.941-4.201-10.143t-10.143-4.201h-0.563q-1.477-5.625-6.17-9.264t-10.494-3.639q-7.945 0-13.113 5.941z"></path>
</svg>
