<?xml version="1.0" encoding="utf-8"?>
<!-- Generated by IcoMoon.io -->
<!DOCTYPE svg PUBLIC "-//W3C//DTD SVG 1.1//EN" "http://www.w3.org/Graphics/SVG/1.1/DTD/svg11.dtd">
<svg version="1.1" xmlns="http://www.w3.org/2000/svg" xmlns:xlink="http://www.w3.org/1999/xlink" width="89" height="72" viewBox="0 0 89 72">
<path fill="#444444" d="M0 30.094q0 1.512 1.055 2.496t2.707 0.984h6.328q1.512 0 2.584-1.002t1.072-2.479q0-1.617-1.055-2.672t-2.602-1.055h-6.328q-1.652 0-2.707 1.037t-1.055 2.689zM6.645 53.297q0 5.449 3.973 9.439t9.422 3.99h25.734q5.449 0 9.334-3.938t3.885-9.492q0-2.707-0.773-4.605 4.676-2.988 7.4-7.963t2.725-10.635q0-4.57-1.793-8.736t-4.799-7.172-7.172-4.799-8.701-1.793q-6.152 0-11.338 3.023t-8.156 8.191-2.971 11.285v1.266q-5.625 3.199-7.418 9.352-4.254 1.336-6.803 4.746t-2.549 7.84zM12.48 0.176q0 1.582 0.984 2.531l6.047 6.328q2.637 2.004 5.273 0 1.055-1.055 1.055-2.637 0-1.512-1.055-2.637l-6.188-6.152q-1.195-1.090-2.602-1.090-1.582 0-2.549 1.055t-0.967 2.602zM14.063 53.297q0-2.355 1.512-4.043t3.832-1.898l2.32-0.316q0.738 0 0.738-0.844l0.352-2.109q0.387-3.234 2.742-5.414t5.555-2.18q3.27 0 5.678 2.18t2.795 5.414l0.316 2.426q0.352 0.844 0.914 0.844h4.957q2.426 0 4.201 1.758t1.775 4.184q0 2.531-1.775 4.324t-4.201 1.793h-25.734q-2.531 0-4.254-1.793t-1.723-4.324zM30.656 29.32q0.387-6.152 4.746-10.336t10.477-4.184q6.258 0 10.652 4.465t4.395 10.828q0 3.938-1.916 7.295t-5.186 5.432q-3.305-2.742-7.629-2.742-1.652-4.922-5.766-7.84t-9.316-2.918h-0.457zM42.223-3.48q0 1.547 1.072 2.619t2.584 1.072q1.547 0 2.619-1.072t1.072-2.619v-8.789q0-1.477-1.072-2.479t-2.619-1.002q-1.512 0-2.584 1.002t-1.072 2.479v8.789zM65.918 53.613q0 1.512 1.020 2.637l6.152 6.082q2.355 2.391 5.273 0 0.984-0.949 0.984-2.531 0-1.512-0.984-2.496l-6.328-6.293q-1.020-0.949-2.566-0.949t-2.549 1.020-1.002 2.531zM65.918 6.328q0 1.582 1.020 2.707 1.020 1.020 2.531 1.020 1.547 0 2.566-1.020l6.328-6.328q0.984-0.949 0.984-2.531 0-1.547-1.072-2.602t-2.619-1.055q-1.477 0-2.566 1.090l-6.152 6.152q-1.020 1.020-1.020 2.566zM75.621 30.094q0 1.512 1.055 2.496t2.707 0.984h6.328q1.512 0 2.584-1.002t1.072-2.479q0-1.617-1.055-2.672t-2.602-1.055h-6.328q-1.652 0-2.707 1.037t-1.055 2.689z"></path>
</svg>
