<?xml version="1.0" encoding="utf-8"?>
<!-- Generated by IcoMoon.io -->
<!DOCTYPE svg PUBLIC "-//W3C//DTD SVG 1.1//EN" "http://www.w3.org/Graphics/SVG/1.1/DTD/svg11.dtd">
<svg version="1.1" xmlns="http://www.w3.org/2000/svg" xmlns:xlink="http://www.w3.org/1999/xlink" width="101" height="72" viewBox="0 0 101 72">
<path fill="#444444" d="M0 43.137q0 5.063 2.479 9.352t6.732 6.768 9.281 2.479h40.605q5.027 0 9.316-2.479t6.785-6.768 2.496-9.352q0-3.727-1.582-7.488 4.289-5.238 4.289-12.41 0-4.008-1.547-7.646t-4.184-6.275-6.275-4.184-7.646-1.547q-8.332 0-14.555 6.539-4.359-2.461-10.125-2.461-7.91 0-13.992 4.904t-7.805 12.568q-6.293 1.441-10.283 6.469t-3.99 11.531zM6.398 43.137q0-4.711 3.146-8.121t7.893-3.973l1.863-0.105q0.703 0 0.703-0.668l0.246-2.039q0.773-6.082 5.273-10.178t10.547-4.096q6.188 0 10.775 4.113t5.15 10.16l0.281 2.18q0.141 0.633 0.773 0.633h6.047q4.957 0 8.543 3.586t3.586 8.508q0 5.098-3.568 8.701t-8.561 3.604h-40.605q-4.922 0-8.508-3.639t-3.586-8.666zM31.535-2.883q0 1.371 0.914 2.355l2.461 2.391q1.406 1.055 2.391 0.949 1.16 0 2.074-0.967t0.914-2.338-0.984-2.215l-2.215-2.461q-1.020-0.914-2.285-0.914-1.371 0-2.32 0.932t-0.949 2.268zM51.574 13.711q3.902-3.762 9.176-3.762 5.555 0 9.439 3.867t3.885 9.422q0 3.516-1.898 6.891-5.449-5.379-13.078-5.379h-1.195q-1.406-6.117-6.328-11.039zM57.656-6.082q0 1.441 0.879 2.32t2.215 0.879q1.441 0 2.32-0.879t0.879-2.32v-7.664q0-1.336-0.896-2.215t-2.303-0.879q-1.336 0-2.215 0.879t-0.879 2.215v7.664zM78.363 2.531q0 1.441 0.844 2.32 1.195 0.914 2.32 0.914 1.020 0 2.215-0.914l5.379-5.379q0.914-1.020 0.914-2.391 0-1.336-0.914-2.25t-2.215-0.914q-1.336 0-2.18 0.914l-5.52 5.379q-0.844 1.020-0.844 2.32zM81.352 46.898q0 1.336 0.949 2.355l2.426 2.355q0.844 0.914 2.18 0.914t2.232-0.932 0.896-2.338q0-1.266-0.914-2.18l-2.426-2.426q-0.914-0.914-2.145-0.914-1.336 0-2.268 0.914t-0.932 2.25zM86.836 23.238q0 1.301 0.984 2.18 0.914 0.914 2.285 0.914h7.664q1.301 0 2.162-0.879t0.861-2.215-0.861-2.268-2.162-0.932h-7.664q-1.336 0-2.303 0.949t-0.967 2.25z"></path>
</svg>
