<?xml version="1.0" encoding="utf-8"?>
<!-- Generated by IcoMoon.io -->
<!DOCTYPE svg PUBLIC "-//W3C//DTD SVG 1.1//EN" "http://www.w3.org/Graphics/SVG/1.1/DTD/svg11.dtd">
<svg version="1.1" xmlns="http://www.w3.org/2000/svg" xmlns:xlink="http://www.w3.org/1999/xlink" width="101" height="72" viewBox="0 0 101 72">
<path fill="#444444" d="M0 43.137q0 6.223 3.691 11.109t9.633 6.68l-2.391 6.363q-0.246 0.773 0.527 0.773h7.945l-4.676 14.801h1.090l15.645-20.215q0.211-0.246 0.053-0.51t-0.545-0.264h-8.156l9.281-17.367q0.387-0.809-0.527-0.809h-11.039q-0.527 0-0.879 0.527l-4.008 10.793q-4.008-1.020-6.645-4.359t-2.637-7.523q0-4.676 3.182-8.121t7.893-4.008l1.969-0.246q0.738 0 0.738-0.668l0.211-1.898q0.598-6.082 5.168-10.195t10.723-4.113q6.117 0 10.705 4.113t5.256 10.195l0.211 2.18q0 0.633 0.668 0.633h6.047q5.098 0 8.701 3.551t3.604 8.578q0 4.781-3.34 8.279t-8.227 3.885q-0.738 0-0.738 0.668v5.133q0 0.633 0.738 0.633 7.488-0.246 12.709-5.66t5.221-12.938q0-4.148-1.617-7.523 4.43-5.379 4.43-12.445 0-5.273-2.654-9.809t-7.189-7.189-9.844-2.654q-8.684 0-14.555 6.504-4.535-2.426-10.125-2.426-7.945 0-14.098 4.922t-7.875 12.586q-6.223 1.441-10.248 6.486t-4.025 11.549zM30.34 79.066q-0.070 0.844 0.51 1.652t1.74 1.23q0.387 0.105 0.773 0.105 0.949 0 1.898-0.563t1.266-1.758l8.578-32.133q0.352-1.301-0.246-2.408t-1.828-1.494q-1.301-0.387-2.443 0.246t-1.494 1.898l-8.648 32.238q-0.105 0.457-0.105 0.984zM31.57-2.883q0 1.336 0.949 2.215l2.391 2.461q0.949 0.949 2.285 0.967t2.145-0.967q1.055-0.844 1.055-2.25 0-1.336-0.949-2.215l-2.355-2.461q-0.984-0.914-2.285-0.914-1.406 0-2.32 0.914t-0.914 2.25zM45.914 67.605q0 0.668 0.422 1.406 0.703 1.125 1.863 1.617 0.387 0.176 1.125 0.176 0.844 0 1.23-0.211 1.125-0.457 1.547-2.18l5.59-20.813q0.352-1.336-0.281-2.426t-1.898-1.477q-1.301-0.387-2.408 0.246t-1.459 1.898l-5.59 20.918q0 0.141-0.070 0.422t-0.070 0.422zM51.645 13.641q3.762-3.621 9.281-3.621 5.484 0 9.369 3.832t3.885 9.316q0 3.516-1.934 6.926-5.59-5.52-13.113-5.52h-1.16q-1.723-6.609-6.328-10.934zM57.691-6.047q0 1.301 0.967 2.268t2.268 0.967q1.336 0 2.215-0.949t0.879-2.285v-7.699q0-1.336-0.879-2.285t-2.215-0.949q-1.301 0-2.268 0.949t-0.967 2.285v7.699zM78.434 2.531q0 1.371 0.984 2.25 0.809 0.949 2.127 0.949t2.268-0.949l5.414-5.449q0.984-0.879 0.984-2.215t-0.949-2.285-2.285-0.949q-1.23 0-2.145 0.984l-5.414 5.414q-0.984 0.879-0.984 2.25zM81.457 47.004q0 1.266 0.914 2.25l2.461 2.355q0.703 0.809 2.039 0.914l0.035 0.035q0.070 0 0.176 0.018t0.176 0.018q1.055 0 1.969-0.984 0.984-0.914 0.984-2.25 0-1.301-0.984-2.285l-2.426-2.285q-0.914-1.020-2.18-1.020-1.301 0-2.232 0.949t-0.932 2.285zM86.906 23.168q0 1.301 1.020 2.25 1.020 1.020 2.285 1.020h7.629q1.301 0 2.268-0.967t0.967-2.303q0-1.301-0.949-2.197t-2.285-0.896h-7.629q-1.406 0-2.355 0.896t-0.949 2.197z"></path>
</svg>
