<?xml version="1.0" encoding="utf-8"?>
<!-- Generated by IcoMoon.io -->
<!DOCTYPE svg PUBLIC "-//W3C//DTD SVG 1.1//EN" "http://www.w3.org/Graphics/SVG/1.1/DTD/svg11.dtd">
<svg version="1.1" xmlns="http://www.w3.org/2000/svg" xmlns:xlink="http://www.w3.org/1999/xlink" width="101" height="72" viewBox="0 0 101 72">
<path fill="#000000" d="M0 43.242q0 4.852 2.391 9.035t6.521 6.715 9.018 2.672q0.633 0 0.633-0.633v-4.992q0-0.703-0.633-0.703-4.781-0.246-8.174-3.814t-3.393-8.279q0-4.641 3.182-8.086t7.857-4.008l1.969-0.211q0.668 0 0.668-0.703l0.281-1.898q0.598-6.152 5.115-10.248t10.67-4.096q6.117 0 10.705 4.096t5.186 10.143l0.281 2.18q0 0.633 0.633 0.633h6.047q5.063 0 8.648 3.604t3.586 8.596q0 4.711-3.393 8.279t-8.139 3.814q-0.703 0-0.703 0.703v4.992q0 0.633 0.703 0.633 7.453-0.246 12.656-5.625t5.203-12.797q0-4.254-1.617-7.629 4.43-5.309 4.43-12.375 0-5.273-2.637-9.791t-7.172-7.154-9.809-2.637q-8.648 0-14.52 6.504-4.57-2.461-10.090-2.461-7.91 0-14.027 4.904t-7.84 12.533q-6.293 1.547-10.266 6.574t-3.973 11.531zM23.801 58.43q0 1.336 0.896 2.285t2.197 0.949 2.197-0.949 0.896-2.285q0-1.266-0.896-2.18t-2.197-0.914-2.197 0.914-0.896 2.18zM23.801 72.035q0 1.16 0.914 2.145 0.984 0.914 2.18 0.914 1.336 0 2.215-0.879t0.879-2.18q0-1.336-0.896-2.215t-2.197-0.879-2.197 0.879-0.896 2.215zM31.465-2.707q0 1.371 0.914 2.215l2.461 2.461q0.914 0.914 2.004 0.949 1.16 0.176 2.285-0.826t1.125-2.373-0.914-2.391l-2.391-2.285q-0.844-0.949-2.18-0.949-1.406 0-2.355 0.932t-0.949 2.268zM35.719 65.637q0 1.266 0.914 2.25 0.914 0.914 2.18 0.914 1.336 0 2.268-0.914t0.932-2.25q0-1.301-0.932-2.232t-2.268-0.932q-1.266 0-2.18 0.932t-0.914 2.232zM35.719 52.137q0 1.266 0.914 2.18t2.18 0.914q1.336 0 2.268-0.896t0.932-2.197-0.932-2.215-2.268-0.914q-1.266 0-2.18 0.914t-0.914 2.215zM35.719 79.348q0 1.23 0.914 2.145 0.949 0.949 2.18 0.949 1.336 0 2.268-0.879t0.932-2.215-0.932-2.268-2.268-0.932q-1.23 0-2.162 0.949t-0.932 2.25zM47.813 58.43q0 1.336 0.914 2.285t2.215 0.949 2.197-0.949 0.896-2.285q0-1.266-0.896-2.18t-2.197-0.914-2.215 0.914-0.914 2.18zM47.813 72.035q0 1.195 0.879 2.145 0.984 0.914 2.25 0.914 1.336 0 2.215-0.879t0.879-2.18q0-1.336-0.896-2.215t-2.197-0.879q-1.336 0-2.232 0.896t-0.896 2.197zM51.469 13.711q3.867-3.727 9.246-3.727 5.449 0 9.316 3.902t3.867 9.352q0 3.516-1.898 6.891-5.379-5.379-13.043-5.379h-1.195q-1.652-6.574-6.293-11.039zM57.48-5.836q0 1.301 0.949 2.18t2.285 0.879 2.215-0.879 0.879-2.18v-7.664q0-1.336-0.896-2.285t-2.197-0.949-2.268 0.967-0.967 2.268v7.664zM78.152 2.672q0 1.301 0.949 2.215 0.844 0.879 2.092 0.967t2.338-0.967l5.379-5.379q0.984-0.984 0.984-2.285 0-1.336-0.967-2.285t-2.268-0.949q-1.23 0-2.18 0.949l-5.379 5.484q-0.949 0.879-0.949 2.25zM81.176 46.898q0 1.406 0.914 2.32l2.391 2.355q1.371 0.914 2.391 0.914 1.16 0 2.092-0.967t0.932-2.303q0-1.266-0.984-2.18l-2.32-2.426q-0.984-0.914-2.285-0.914t-2.215 0.932-0.914 2.268zM86.59 23.238q0 1.336 0.984 2.215 0.949 1.020 2.32 1.020h7.594q1.301 0 2.25-0.949t0.949-2.285-0.949-2.268-2.25-0.932h-7.594q-1.336 0-2.32 0.949t-0.984 2.25z"></path>
</svg>
