<?xml version="1.0" encoding="utf-8"?>
<!-- Generated by IcoMoon.io -->
<!DOCTYPE svg PUBLIC "-//W3C//DTD SVG 1.1//EN" "http://www.w3.org/Graphics/SVG/1.1/DTD/svg11.dtd">
<svg version="1.1" xmlns="http://www.w3.org/2000/svg" xmlns:xlink="http://www.w3.org/1999/xlink" width="80" height="72" viewBox="0 0 80 72">
<path fill="#444444" d="M0 34.594q0-1.371 0.949-2.32 0.984-0.914 2.25-0.914h7.664q1.301 0 2.162 0.949t0.861 2.285-0.861 2.268-2.162 0.932h-7.664q-1.301 0-2.25-0.949t-0.949-2.25zM10.723 60.574q0-1.301 0.879-2.285l5.52-5.344q0.844-0.879 2.215-0.879 1.336 0 2.232 0.844t0.896 2.145q0 1.371-0.914 2.391l-5.344 5.344q-2.285 1.793-4.605 0-0.879-0.949-0.879-2.215zM10.723 8.648q0-1.301 0.879-2.285 1.090-0.914 2.391-0.914 1.23 0 2.215 0.914l5.344 5.52q0.914 0.844 0.914 2.215 0 1.336-0.896 2.232t-2.232 0.896q-1.371 0-2.215-0.914l-5.52-5.344q-0.879-0.949-0.879-2.32zM20.285 34.594q0-5.238 2.637-9.756t7.154-7.154 9.756-2.637q3.938 0 7.559 1.564t6.24 4.184 4.166 6.24 1.547 7.559q0 5.273-2.619 9.773t-7.119 7.119-9.773 2.619-9.773-2.619-7.137-7.119-2.637-9.773zM26.648 34.594q0 5.484 3.85 9.369t9.334 3.885 9.369-3.885 3.885-9.369q0-5.414-3.885-9.246t-9.369-3.832q-5.449 0-9.316 3.832t-3.867 9.246zM36.633 63.738q0-1.336 0.932-2.25t2.268-0.914q1.371 0 2.285 0.914t0.914 2.25v7.453q0 1.371-0.932 2.32t-2.268 0.949-2.268-0.949-0.932-2.32v-7.453zM36.633 5.625v-7.664q0-1.301 0.949-2.25t2.25-0.949 2.25 0.949 0.949 2.25v7.664q0 1.301-0.932 2.162t-2.268 0.861-2.268-0.861-0.932-2.162zM57.34 55.055q0-1.301 0.844-2.109 0.844-0.879 2.109-0.879 1.371 0 2.25 0.879l5.484 5.344q0.914 0.984 0.914 2.285t-0.914 2.215q-2.25 1.758-4.5 0l-5.344-5.344q-0.844-0.949-0.844-2.391zM57.34 14.098q0-1.406 0.844-2.215l5.344-5.52q0.984-0.914 2.215-0.914 1.336 0 2.268 0.949t0.932 2.25q0 1.406-0.914 2.32l-5.484 5.344q-1.020 0.914-2.25 0.914-1.266 0-2.109-0.896t-0.844-2.232zM65.813 34.594q0-1.336 0.914-2.32 0.914-0.914 2.145-0.914h7.594q1.301 0 2.268 0.967t0.967 2.268-0.967 2.25-2.268 0.949h-7.594q-1.301 0-2.18-0.932t-0.879-2.268z"></path>
</svg>
