<?xml version="1.0" encoding="utf-8"?>
<!-- Generated by IcoMoon.io -->
<!DOCTYPE svg PUBLIC "-//W3C//DTD SVG 1.1//EN" "http://www.w3.org/Graphics/SVG/1.1/DTD/svg11.dtd">
<svg version="1.1" xmlns="http://www.w3.org/2000/svg" xmlns:xlink="http://www.w3.org/1999/xlink" width="58" height="72" viewBox="0 0 58 72">
<path fill="#444444" d="M0 41.941q0-1.266 0.879-2.092t2.391-0.826h21.41q1.512 0 2.391 0.826t0.879 2.092q0 1.547-0.861 2.408t-2.408 0.861h-21.41q-1.512 0-2.391-0.861t-0.879-2.408zM0 19.758q0-1.266 0.879-2.074t2.391-0.809h11.109q1.512 0 2.408 0.809t0.896 2.074q0 1.512-0.896 2.408t-2.408 0.896h-11.109q-1.512 0-2.391-0.879t-0.879-2.426zM3.691 53.016q0-1.23 1.037-2.268t2.268-1.037q1.441 0 2.338 1.002t0.896 2.303q0 1.547-0.861 2.426t-2.373 0.879q-1.301 0-2.303-0.914t-1.002-2.391zM9.035 30.797q0-1.301 0.826-2.303t2.021-1.002q1.477 0 2.391 1.002t0.914 2.303q0 1.547-0.879 2.426t-2.426 0.879q-1.266 0-2.057-0.896t-0.791-2.408zM12.727 53.016q0-1.301 0.914-2.303t2.391-1.002h14.379l3.305 3.305q0 1.477-1.002 2.391t-2.303 0.914h-14.379q-1.547 0-2.426-0.896t-0.879-2.408zM17.684 30.797q0-1.23 1.037-2.268t2.268-1.037h14.379q1.477 0 2.373 1.002t0.896 2.303q0 1.547-0.879 2.426t-2.391 0.879h-14.379q-1.301 0-2.303-0.914t-1.002-2.391zM20.531 19.758q0-1.266 0.896-2.074t2.408-0.809h21.41q1.266 0 2.285 0.844t1.020 2.039q0 1.477-1.002 2.391t-2.303 0.914h-21.41q-1.547 0-2.426-0.896t-0.879-2.408zM30.41 41.941q0-1.195 1.020-2.057t2.285-0.861 2.285 0.861 1.020 2.057q0 1.477-1.002 2.373t-2.303 0.896-2.303-0.896-1.002-2.373zM36.176 53.016q0-1.301 0.896-2.303t2.373-1.002h6.996q1.477 0 2.373 0.984t0.896 2.32q0 1.547-0.861 2.426t-2.408 0.879h-6.996q-1.512 0-2.391-0.879t-0.879-2.426zM39.445 41.941q0-1.195 1.020-2.057t2.285-0.861h11.496q1.23 0 2.039 0.844t0.809 2.074q0 1.512-0.791 2.391t-2.057 0.879h-11.496q-1.301 0-2.303-0.896t-1.002-2.373zM41.098 30.797q0-1.23 1.037-2.268t2.268-1.037h7.348q1.195 0 2.039 1.020t0.844 2.285q0 1.512-0.809 2.408t-2.074 0.896h-7.348q-1.301 0-2.303-0.914t-1.002-2.391zM51.363 19.758q0-1.23 0.826-2.057t2.057-0.826q1.512 0 2.408 0.809t0.896 2.074q0 1.512-0.896 2.408t-2.408 0.896q-1.266 0-2.074-0.896t-0.809-2.408z"></path>
</svg>
