<?xml version="1.0" encoding="utf-8"?>
<!-- Generated by IcoMoon.io -->
<!DOCTYPE svg PUBLIC "-//W3C//DTD SVG 1.1//EN" "http://www.w3.org/Graphics/SVG/1.1/DTD/svg11.dtd">
<svg version="1.1" xmlns="http://www.w3.org/2000/svg" xmlns:xlink="http://www.w3.org/1999/xlink" width="78" height="72" viewBox="0 0 78 72">
<path fill="#000000" d="M0 43.137q0 7.488 5.221 12.867t12.744 5.73q0.633 0 0.633-0.633v-5.027q0-0.633-0.633-0.633-4.816-0.246-8.191-3.832t-3.375-8.473q0-4.641 3.164-8.086t7.84-4.008l2.004-0.105q0.738 0 0.738-0.703l0.211-2.004q0.598-6.082 5.15-10.178t10.705-4.096q6.117 0 10.688 4.096t5.203 10.178l0.281 2.18q0 0.633 0.668 0.633h6.047q4.992 0 8.648 3.586t3.656 8.508q0 4.887-3.393 8.473t-8.174 3.832q-0.738 0-0.738 0.633v5.027q0 0.633 0.738 0.633 4.887-0.141 9-2.672t6.486-6.768 2.373-9.158q0-5.027-2.496-9.264t-6.785-6.68-9.316-2.443h-1.195q-1.828-7.523-7.893-12.305t-13.799-4.781q-7.91 0-14.063 4.904t-7.875 12.568q-6.223 1.441-10.248 6.486t-4.025 11.514zM20.426 70.137q0.527 1.195 1.723 1.723 1.125 0.563 2.338 0.070t1.67-1.688q0.563-1.23 0.088-2.408t-1.705-1.635q-1.125-0.598-2.303-0.105t-1.74 1.758q-0.527 0.914-0.070 2.285zM22.781 59.555q0 0.879 0.58 1.705t1.74 1.213q1.090 0.633 2.32 0.053t1.652-2.232l3.375-12.691q0.352-1.406-0.299-2.514t-1.986-1.354q-0.457-0.105-0.914-0.105-0.914 0-1.775 0.563t-1.213 1.652l-3.305 12.727q-0.176 0.809-0.176 0.984zM29.777 80.508q0 0.668 0.211 1.090 0.492 1.23 1.688 1.688 0.527 0.281 1.23 0.281 0.352 0 1.125-0.211 1.23-0.457 1.775-1.688t-0.018-2.461-1.67-1.723-2.338 0q-1.055 0.457-1.529 1.336t-0.475 1.688zM32.52 70.734q0 2.074 2.355 2.742 0.633 0.141 0.914 0.141 0.844 0 1.441-0.281 1.16-0.457 1.582-2.145l6.258-23.59q0.352-1.336-0.229-2.426t-1.846-1.441q-0.457-0.105-1.020-0.105-0.914 0-1.811 0.563t-1.107 1.652l-6.398 23.766q-0.141 0.773-0.141 1.125zM45.387 69.012q0 0.668 0.281 1.195 0.457 1.090 1.652 1.652 0.633 0.246 1.301 0.246 0.352 0 1.125-0.211 1.195-0.457 1.723-1.652 0.422-1.23-0.035-2.355t-1.582-1.688q-1.266-0.598-2.443-0.105t-1.74 1.758q-0.281 0.527-0.281 1.16zM48.094 59.379q0 0.809 0.598 1.688t1.688 1.23q0.879 0.176 1.020 0.176 0.527 0 1.371-0.387 1.125-0.527 1.512-1.969l3.375-12.516q0.105-0.949 0.105-0.984 0-0.879-0.58-1.723t-1.705-1.16q-0.492-0.105-0.984-0.105-0.914 0-1.758 0.545t-1.16 1.67l-3.375 12.586z"></path>
</svg>
