<?xml version="1.0" encoding="utf-8"?>
<!-- Generated by IcoMoon.io -->
<!DOCTYPE svg PUBLIC "-//W3C//DTD SVG 1.1//EN" "http://www.w3.org/Graphics/SVG/1.1/DTD/svg11.dtd">
<svg version="1.1" xmlns="http://www.w3.org/2000/svg" xmlns:xlink="http://www.w3.org/1999/xlink" width="81" height="72" viewBox="0 0 81 72">
<path fill="#000000" d="M0 35.086q0-1.336 1.020-2.285 0.949-0.949 2.32-0.949h7.734q1.336 0 2.268 0.949t0.932 2.285q0 1.406-0.932 2.355t-2.268 0.949h-7.734q-1.406 0-2.373-0.949t-0.967-2.355zM10.969 8.789q0-1.301 0.914-2.32 1.055-0.949 2.461-0.949 1.195 0 2.215 0.949l5.449 5.555q0.949 0.879 0.949 2.25 0 1.336-0.932 2.268t-2.232 0.932q-1.441 0-2.285-0.949l-5.625-5.414q-0.914-0.984-0.914-2.32zM20.742 35.086q0-3.973 1.6-7.646t4.289-6.328 6.381-4.254 7.699-1.6q5.379 0 9.984 2.689t7.277 7.26 2.672 9.879q0 0.844-0.105 1.582-1.582-0.949-3.621-0.949-1.371 0-2.707 0.563 0.035-0.387 0.035-1.195 0-5.484-3.973-9.369t-9.563-3.885q-5.555 0-9.51 3.885t-3.955 9.369v0.668q-1.652 0.105-3.164 0.949-0.035 0.035-0.387 0.281t-0.703 0.51-0.879 0.703-0.984 0.896q-0.387-1.793-0.387-4.008zM20.848 48.797v-0.563q-0.035-0.527 0.070-1.23 0.281-2.004 1.582-3.832 0.738-0.914 1.020-1.16 0.035-0.105 0.141-0.211l0.141-0.141q0.141-0.070 0.457-0.387 0.105-0.141 0.299-0.281t0.264-0.211q0.281-0.281 0.527-0.387l0.633-0.422q0.809-0.527 1.863-0.527h0.105q0.563 0 0.984 0.105 0.176 0.070 0.492 0.246v0.035q0.809 0.352 1.283 1.072t0.475 1.564q0 0.949-0.527 1.582-0.352 0.492-0.844 0.879-0.105 0.035-0.229 0.105t-0.158 0.070l-0.211 0.141q-0.211 0.176-0.369 0.316t-0.404 0.404-0.422 0.51-0.334 0.58-0.193 0.65v0.563q0.211 0.844 0.422 1.336 0.387 0.773 1.266 1.652 0.070 0.105 0.914 0.949 4.852 4.395 4.535 9.387-0.105 1.688-0.791 3.252t-1.6 2.637-1.477 1.6-0.949 0.773q-0.035 0.035-0.211 0.158t-0.281 0.158q-0.457 0.211-0.809 0.246-0.492 0.070-0.738 0.070-1.688 0-2.672-1.125-0.809-0.984-0.668-2.215t1.23-2.004l0.070-0.070q0.070-0.070 0.176-0.158t0.264-0.229 0.316-0.316 0.316-0.387 0.316-0.439 0.316-0.51 0.264-0.563 0.176-0.615 0.070-0.65q0.105-1.125-0.563-2.25-0.281-0.598-0.844-1.23-0.387-0.457-0.563-0.598-0.527-0.633-0.563-0.668-0.105-0.070-0.264-0.211t-0.229-0.176q-0.844-0.773-1.266-1.336-0.703-0.879-0.914-1.195-1.090-1.477-1.477-2.918-0.246-0.809-0.281-1.195 0-0.105-0.070-0.299t-0.070-0.334zM35.402 47.531q0-0.316 0.035-0.527 0.141-1.23 0.738-2.408t1.318-1.986 1.406-1.424 1.178-0.932l0.457-0.281q0.844-0.527 1.863-0.527 0.633 0 1.125 0.105 0.035 0 0.193 0.088t0.229 0.158q0.070 0 0.105 0.035 0.035 0 0.281 0.176 1.125 0.668 1.406 2.039 0 0.105 0.018 0.246t0.018 0.176q0 0.176-0.070 0.439t-0.070 0.334q-0.387 1.266-1.582 1.863-1.863 1.23-1.969 2.602-0.035 0.457 0 0.809 0.141 0.668 0.633 1.477 0.633 0.914 0.914 1.195 0.879 0.879 1.055 1.020 0.703 0.633 1.758 1.898 3.059 3.656 2.777 7.488-0.105 1.688-0.791 3.27t-1.6 2.619-1.512 1.6-0.949 0.773l-0.457 0.316q-0.598 0.211-0.773 0.246-0.633 0.070-0.738 0.070h-0.105q-0.457 0-0.703-0.070-0.105 0-0.299-0.053t-0.264-0.053q-0.035 0-0.105-0.035t-0.141-0.088-0.105-0.053q-0.844-0.598-0.984-0.773-0.879-1.020-0.703-2.232t1.266-1.986l0.105-0.141q0.141-0.105 0.334-0.299l0.439-0.439t0.475-0.598 0.439-0.721 0.334-0.826 0.158-0.914q0.070-2.25-2.602-4.746-1.055-0.949-1.652-1.617-3.129-3.691-2.883-7.313zM37.441 5.695v-7.77q0-1.371 0.967-2.32t2.303-0.949q1.371 0 2.32 0.949t0.949 2.32v7.77q0 1.336-0.949 2.215t-2.32 0.879q-1.336 0-2.303-0.879t-0.967-2.215zM50.027 47.004q0.141-1.23 0.738-2.408t1.318-1.986 1.406-1.424 1.143-0.932l0.492-0.281q0.141-0.105 0.387-0.281 0.633-0.246 1.406-0.246 1.898 0 2.883 1.441 0.281 0.387 0.387 0.844 0.070 0.141 0.070 0.316v0.422q0 1.758-1.688 2.637-1.793 1.195-1.969 2.602-0.211 1.898 2.566 4.5 4.922 4.359 4.605 9.387-0.105 1.688-0.791 3.252t-1.617 2.637-1.477 1.6-0.932 0.773q-0.914 0.563-1.547 0.598-0.176 0.035-0.563 0.035-1.688 0-2.602-1.125-0.844-0.984-0.703-2.215t1.195-2.004q0.176-0.070 0.668-0.527t1.072-1.441 0.65-1.969q0.105-2.25-2.637-4.746-2.32-2.039-3.516-4.359-1.266-2.461-0.949-5.098zM58.605 14.273q0-1.406 0.844-2.25l5.484-5.555q1.020-0.949 2.285-0.949 1.336 0 2.303 0.967t0.967 2.303q0 1.406-0.984 2.32l-5.555 5.414q-1.020 0.949-2.285 0.949-1.301 0-2.18-0.932t-0.879-2.268zM67.254 35.086q0-1.23 0.984-2.285 0.879-0.949 2.18-0.949h7.734q1.336 0 2.338 0.967t1.002 2.268q0 1.371-0.984 2.338t-2.355 0.967h-7.734q-1.371 0-2.268-0.949t-0.896-2.355z"></path>
</svg>
