<?xml version="1.0" encoding="utf-8"?>
<!-- Generated by IcoMoon.io -->
<!DOCTYPE svg PUBLIC "-//W3C//DTD SVG 1.1//EN" "http://www.w3.org/Graphics/SVG/1.1/DTD/svg11.dtd">
<svg version="1.1" xmlns="http://www.w3.org/2000/svg" xmlns:xlink="http://www.w3.org/1999/xlink" width="30" height="72" viewBox="0 0 30 72">
<path fill="#444444" d="M0.105 34.242v-0.070q-0.035-0.457 0.018-1.371t0.369-3.023 0.932-4.324 1.916-5.063 3.076-5.414 4.693-5.221 6.504-4.658q0.879-0.492 1.846-0.211t1.424 1.16q0.492 0.879 0.229 1.863t-1.143 1.477q-7.383 4.043-11.355 11.426 3.023-1.406 6.117-1.406 6.047 0 10.371 4.307t4.324 10.354q0 0.457-0.018 0.896t-0.158 1.934-0.422 2.883-0.879 3.48-1.424 3.973-2.18 4.131-3.023 4.201-4.061 3.938-5.203 3.568q-0.527 0.316-1.16 0.316-1.441 0-2.18-1.301-0.492-0.879-0.211-1.846t1.16-1.424q7.559-4.219 11.461-11.566-3.059 1.441-6.398 1.441-3.902 0-7.26-1.934t-5.344-5.273-2.021-7.242zM6.469 34.066q0 3.445 2.426 5.871t5.836 2.426q3.199 0 5.572-2.127t2.725-5.291l0.035-0.844q0-0.141 0.035-0.176-0.035-3.375-2.479-5.713t-5.889-2.338q-3.129 0-5.467 2.039t-2.725 5.098l-0.070 0.949v0.105z"></path>
</svg>
