<?xml version="1.0"?>
<svg width="600" height="800" xmlns="http://www.w3.org/2000/svg">
 <!-- Created with Method Draw - http://github.com/duopixel/Method-Draw/ -->

 <g>
  <title>background</title>
  <rect x="-1" y="-1" width="602" height="802" id="canvas_background" fill="#ffffff"/>
 </g>
 <g stroke="null">
  <title>Layer 1</title>
  <text font-weight="bold" stroke="#000" xml:space="preserve" text-anchor="left" font-family="'Palatino Linotype', 'Book Antiqua', Palatino, serif" font-size="26" id="svg_1" y="239.5" x="7" stroke-width="0" fill="#000000">Saturday, November 07</text>
  <line stroke="#000" stroke-linecap="undefined" stroke-linejoin="undefined" id="svg_2" y2="272.501566" x2="484.634969" y1="272.501566" x1="115.365051" fill="none"/>
  <line stroke="#000" stroke-linecap="undefined" stroke-linejoin="undefined" id="svg_3" y2="560.500234" x2="600.13496" y1="560.500234" x1="-0.134979" fill="none"/>
  <g stroke="null" id="svg_10">
   <path stroke="null" id="svg_9" d="m120.500504,36.547081c12.864197,0 26.114243,-25.498581 26.114243,-25.498581s-0.904404,28.909359 10.240189,35.541889c11.139771,6.627621 34.984528,-8.623798 34.984528,-8.623798s-14.805618,24.573788 -8.371124,36.061462c6.434509,11.480225 34.480515,10.56041 34.480515,10.56041s-24.739548,13.652924 -24.739548,26.91806c0,13.25769 24.734695,26.915611 24.734695,26.915611s-28.045959,-0.927307 -34.480469,10.560394c-6.429688,11.482697 8.366287,36.056503 8.366287,36.056503s-23.839935,-15.256409 -34.984543,-8.626343c-11.139755,6.632584 -10.245026,35.539459 -10.245026,35.539459s-13.245224,-25.498596 -26.111816,-25.501099c-12.864136,0.002502 -26.111771,25.496094 -26.111771,25.496094s0.894745,-28.909332 -10.24263,-35.539413c-11.142166,-6.627563 -34.982101,8.623825 -34.982101,8.623825s14.798359,-24.576294 8.368698,-36.05899c-6.43449,-11.485184 -34.478069,-10.562866 -34.478069,-10.562866s24.737099,-13.657928 24.737099,-26.915611c0,-13.26017 -24.732288,-26.915581 -24.732288,-26.915581s28.045998,0.922302 34.478081,-10.560387s-8.366283,-36.056499 -8.366283,-36.056499s23.842335,15.253899 34.982113,8.623829c11.142197,-6.630089 10.247452,-35.536949 10.247452,-35.536949s13.24762,25.498581 26.111771,25.498581zm-0.004807,6.428738c-36.716164,0 -66.479305,30.681835 -66.479305,68.525738s29.765537,68.525757 66.479305,68.525757s66.476913,-30.681839 66.476913,-68.525757s-29.763153,-68.525738 -66.476913,-68.525738zm0,8.365303c-32.23278,0 -58.363857,26.935459 -58.363857,60.160435c0,33.22496 26.131077,60.160477 58.363857,60.160477c32.232742,0 58.363861,-26.935516 58.363861,-60.160477c0,-33.224976 -26.131119,-60.160435 -58.363861,-60.160435z"/>
  </g>
  <g stroke="null" id="svg_71">
   <g stroke="null" transform="matrix(1.5379192782463114,0,0,1.5379192782463114,385.429842519551,266.62930617973706) " id="svg_44">
    <path stroke="null" id="svg_45" d="m-223.948242,53.284321c-6.899979,0 -12.5,-5.600018 -12.5,-12.500019s5.600021,-12.500031 12.5,-12.500031c6.900009,0 12.5,5.60001 12.5,12.500031s-5.699982,12.500019 -12.5,12.500019zm0,-23.000029c-5.799988,0 -10.5,4.699999 -10.5,10.50001c0,5.80003 4.700012,10.500019 10.5,10.500019c5.800018,0 10.5,-4.699989 10.5,-10.500019c-0.099991,-5.800011 -4.799988,-10.50001 -10.5,-10.50001z" fill="#000000"/>
   </g>
   <g stroke="null" transform="matrix(1.5379192782463114,0,0,1.5379192782463114,385.429842519551,266.62930617973706) " id="svg_46">
    <g stroke="null" id="svg_47">
     <path stroke="null" id="svg_48" d="m-223.948242,26.484283c-0.599991,0 -1,-0.400011 -1,-1l0,-5.500011c0,-0.599979 0.400009,-1 1,-1s1,0.400021 1,1l0,5.500011c0,0.599989 -0.5,1 -1,1z" fill="#000000"/>
    </g>
    <g stroke="null" id="svg_49">
     <path stroke="null" id="svg_50" d="m-223.948242,62.584324c-0.599991,0 -1,-0.399982 -1,-0.999992l0,-5.500008c0,-0.599991 0.400009,-1 1,-1s1,0.400009 1,1l0,5.500008c0,0.5 -0.5,0.999992 -1,0.999992z" fill="#000000"/>
    </g>
   </g>
   <g stroke="null" transform="matrix(1.5379192782463114,0,0,1.5379192782463114,385.429842519551,266.62930617973706) " id="svg_51">
    <g stroke="null" id="svg_52">
     <path stroke="null" id="svg_53" d="m-213.24823,30.984293c-0.300003,0 -0.5,-0.100021 -0.700012,-0.300022c-0.399963,-0.399979 -0.399963,-1 0,-1.399979l3.900009,-3.900011c0.400009,-0.399998 1,-0.399998 1.400009,0s0.399994,1 0,1.39999l-3.900009,3.9c-0.199997,0.200001 -0.400009,0.300022 -0.699997,0.300022z" fill="#000000"/>
    </g>
    <g stroke="null" id="svg_54">
     <path stroke="null" id="svg_55" d="m-238.648224,56.484344c-0.300018,0 -0.5,-0.100014 -0.699982,-0.300011c-0.400024,-0.400013 -0.400024,-1 0,-1.400013l3.899963,-3.899986c0.400009,-0.400021 1,-0.400021 1.400009,0s0.400009,1 0,1.399986l-3.900009,3.900013c-0.199982,0.199997 -0.5,0.300011 -0.699982,0.300011z" fill="#000000"/>
    </g>
   </g>
   <g stroke="null" transform="matrix(1.5379192782463114,0,0,1.5379192782463114,385.429842519551,266.62930617973706) " id="svg_56">
    <g stroke="null" id="svg_57">
     <path stroke="null" id="svg_58" d="m-203.24823,41.784302l-5.5,0c-0.599976,0 -1,-0.399998 -1,-1.000008s0.400024,-1 1,-1l5.5,0c0.600006,0 1,0.400009 1,1s-0.399994,1.000008 -1,1.000008z" fill="#000000"/>
    </g>
    <g stroke="null" id="svg_59">
     <path stroke="null" id="svg_60" d="m-239.24823,41.784302l-5.5,0c-0.599976,0 -1,-0.399998 -1,-1.000008s0.400024,-1 1,-1l5.5,0c0.600006,0 1.000015,0.400009 1.000015,1s-0.400009,1.000008 -1.000015,1.000008z" fill="#000000"/>
    </g>
   </g>
   <g stroke="null" transform="matrix(1.5379192782463114,0,0,1.5379192782463114,385.429842519551,266.62930617973706) " id="svg_61">
    <g stroke="null" id="svg_62">
     <path stroke="null" id="svg_63" d="m-209.24823,56.484344c-0.300003,0 -0.5,-0.100014 -0.700012,-0.300011l-3.899979,-3.900013c-0.400009,-0.399986 -0.400009,-1 0,-1.399986s1,-0.400021 1.399979,0l3.900009,3.899986c0.400009,0.400013 0.400009,1 0,1.400013c-0.199997,0.199997 -0.5,0.300011 -0.699997,0.300011z" fill="#000000"/>
    </g>
    <g stroke="null" id="svg_64">
     <path stroke="null" id="svg_65" d="m-234.74823,30.984293c-0.300003,0 -0.5,-0.100021 -0.700012,-0.300022l-3.899963,-3.9c-0.400024,-0.39999 -0.400024,-1 0,-1.39999s1,-0.399998 1.399963,0l3.900009,3.900011c0.400009,0.399979 0.400009,1 0,1.399979c-0.199997,0.200001 -0.5,0.300022 -0.699997,0.300022z" fill="#000000"/>
    </g>
   </g>
   <g stroke="null" transform="matrix(1.5379192782463114,0,0,1.5379192782463114,385.429842519551,266.62930617973706) " id="svg_66">
    <path stroke="null" id="svg_67" d="m-220.74823,64.084328c-4.700012,0 -8.599976,-3.800007 -8.599976,-8.599995c0,-4.400009 3.299973,-7.900009 7.499985,-8.500011c-0.100021,-0.599991 -0.200012,-1.200008 -0.200012,-1.89999c0,-5.500038 4.400009,-9.900051 9.900009,-9.900051c4.300003,0 8,2.80003 9.399994,6.700031c0.600006,-0.10001 1.100006,-0.10001 1.699997,-0.10001c6.199997,0 11.099991,5.000019 11.099991,11.100033s-5,11.10001 -11.099991,11.10001l-19.699997,0l0,0.099983z" fill="#000000"/>
    <path stroke="null" id="svg_68" d="m-201.048233,65.084328l-19.699997,0c-5.300003,0 -9.599976,-4.300007 -9.599976,-9.599995c0,-4.500011 3.099976,-8.300011 7.299973,-9.300011c0,-0.400009 -0.099991,-0.700008 -0.099991,-1.000011c0,-6.000008 4.899994,-10.900028 10.899994,-10.900028c4.400009,0 8.299988,2.60001 10,6.600021c0.400009,0 0.699997,-0.10001 1.100006,-0.10001c6.699982,0 12.100006,5.400017 12.100006,12.10004s-5.300003,12.199986 -12.000015,12.199986l0,0.000008zm-11.099991,-28.800026c-4.900009,0 -8.900009,4 -8.900009,8.900009c0,0.500011 0.099991,1.100002 0.200012,1.700024c0.099991,0.299988 0,0.599987 -0.200012,0.799969c-0.199997,0.200031 -0.400009,0.400028 -0.699997,0.400028c-3.800003,0.5 -6.599976,3.699989 -6.599976,7.499992c0,4.20002 3.399963,7.60001 7.599976,7.60001l19.799988,0c5.600021,0 10.100006,-4.5 10.100006,-10.10001s-4.499985,-10.10001 -10.100006,-10.10001c-0.5,0 -1,0 -1.599991,0.10001c-0.5,0.099987 -0.900009,-0.200001 -1.099991,-0.700012c-1.300018,-3.70002 -4.699982,-6.10001 -8.5,-6.10001z" fill="#000000"/>
   </g>
  </g>
  <g stroke="null" id="svg_86">
   <path id="svg_83" fill="#000000" d="m172.481232,618.368408c-1.783066,0 -3.273926,1.426819 -3.273926,3.2099c0,0.780029 0.373901,1.560425 0.834396,2.118469c0.043365,1.424622 0,2.855225 0,4.365479l-2.182709,0.064209l-84.22715,0l0,8.217285c0.391678,0.646606 1.29393,1.685913 2.246895,2.953064c0.95298,1.267151 1.963692,2.730835 2.632111,4.301208c1.291405,1.986877 1.283951,101.624695 1.283951,101.624695c0,0 0.09874,10.259705 4.172791,10.400085l42.948303,-0.256653c-0.121048,-1.975037 0.296616,-3.328857 0.962936,-4.301392c-1.455139,-2.200195 -2.311218,-4.808533 -2.311218,-7.639465c0,-7.684326 6.246521,-13.930908 13.93103,-13.930908c1.349014,0 2.617279,0.218811 3.851807,0.577759l8.15303,-85.125854c0.075821,-0.135071 0.121597,-0.252441 0.192688,-0.385193l2.054337,0l0,-4.108704l4.10849,0c0,0 6.97702,0.096069 7.125961,-11.427185l0,-5.392578c0.460648,-0.558105 0.706223,-1.274292 0.706223,-2.054321c0,-1.783081 -1.426865,-3.2099 -3.209946,-3.2099l0,0zm-0.064163,0.320984c1.086319,0 1.990173,0.90387 1.990173,1.990112c0,1.086243 -0.903854,1.925964 -1.990173,1.925964c-1.086136,0 -1.925812,-0.839722 -1.925812,-1.925964c0,-1.086243 0.839676,-1.990112 1.925812,-1.990112z"/>
   <path id="svg_84" fill="#000000" d="m170.558762,624.424927c0.792709,1.895203 1.897598,-0.798462 2.690216,1.096863l31.748276,75.792175c0.792694,1.895203 0.795013,1.889465 2.690247,1.096924l5.680664,-2.390015l-33.341614,-79.579285l-3.787109,1.593323l-1.534164,-3.812012l-0.796661,-1.893555c0,0 -2.345886,0.991089 -3.78714,1.593323c-1.895248,0.792603 -1.88945,0.794983 -1.096878,2.690186c0.792679,1.895264 0.700302,1.817505 1.534164,3.812073zm0.181503,-3.210571c-0.421234,-1.001221 0.061386,-2.184875 1.062622,-2.606079c1.001236,-0.421265 2.125732,0.086243 2.546967,1.087463c0.421249,1.001221 -0.0271,2.10083 -1.02832,2.522095c-1.001221,0.421265 -2.160034,-0.002197 -2.581268,-1.003479z"/>
   <path id="svg_85" fill="#000000" d="m162.647247,743.428772c0,7.129272 -5.779358,12.90863 -12.908585,12.90863c-7.129227,0 -12.908585,-5.779358 -12.908585,-12.90863c0,-7.129211 5.779358,-12.908569 12.908585,-12.908569c7.129227,0 12.908585,5.779358 12.908585,12.908569z"/>
  </g>
  <text font-weight="bold" stroke="#000" xml:space="preserve" text-anchor="left" font-family="'Palatino Linotype', 'Book Antiqua', Palatino, serif" font-size="20" id="svg_87" y="787.500234" x="120.257828" fill-opacity="null" stroke-opacity="null" stroke-width="0" fill="#000000">Today</text>
  <text font-weight="bold" stroke="#000" xml:space="preserve" text-anchor="left" font-family="'Palatino Linotype', 'Book Antiqua', Palatino, serif" font-size="20" id="svg_88" y="784.500234" x="391.782623" fill-opacity="null" stroke-opacity="null" stroke-width="0" fill="#000000">Tomorrow</text>
  <g stroke="null" id="svg_156">
   <g stroke="null" transform="matrix(1.7452868079692143,0,0,1.7452868079692143,-555.6739641753439,-97.06512265835295) " id="svg_147">
    <polygon stroke="null" id="svg_148" points="558.6869506835938,461.03261613845825 532.0640258789062,447.9506154060364 532.0640258789062,473.9946217536926 572.2039794921875,493.4806447029114 572.2039794921875,442.3376393318176 "/>
    <polygon stroke="null" id="svg_149" points="520.2760009765625,441.3896412849426 532.0980224609375,422.9446949958801 572.2360229492188,440.8706593513489 558.3369750976562,460.0966420173645 "/>
    <polygon stroke="null" id="svg_150" points="590.197998046875,414.5757374763489 572.6419677734375,408.42873430252075 532.8939819335938,422.40871477127075 551.02099609375,430.4506764411926 "/>
    <polygon stroke="null" id="svg_151" points="591.31396484375,414.96572160720825 551.968994140625,430.871666431427 572.6419677734375,440.0426564216614 612.29296875,422.3116993904114 "/>
    <polygon stroke="null" id="svg_152" points="613.9769897460938,423.0216908454895 619.9409790039062,434.2456593513489 613.9769897460938,431.9846730232239 "/>
    <path stroke="null" id="svg_153" d="m597.796997,429.866699l0.143982,10.905945l-1.380005,-1.655975l-2.226013,3.26297l-1.867004,-1.314972l-2.80896,3.603973l-0.433044,-10.975983l-16.242981,7.253998l0,52.533997l40.138977,-19.486023l0,-50.972931l-15.324951,6.845001zm1.137939,17.805939c1.135071,-0.515991 1.845032,-0.309998 2.141052,0.609985l0.662964,2.037994l0.940002,-1.037994c0.153015,-0.143982 0.223022,-0.211975 0.207031,-0.204987c0.098022,-0.04599 0.140015,0.040009 0.125,0.261017c-0.015015,0.182983 -0.059998,0.376984 -0.137024,0.579987l-2.320984,5.894012l-4.192017,1.64798c-0.167969,0.060028 -0.245972,-0.006989 -0.230957,-0.195984c0.010986,-0.153015 0.05896,-0.275024 0.142944,-0.365997l0.848999,-0.957031l-0.862976,-2.73999c-0.466003,-1.479004 -0.960999,-2.41098 -1.487,-2.789978c-0.22699,-0.171021 -0.669983,-0.247009 -1.336975,-0.230011l5.499939,-2.509003zm-13.908936,23.007996c-0.169006,-0.360992 -0.237976,-0.733002 -0.21405,-1.109985c0.029053,-0.419006 0.218018,-1.032013 0.563049,-1.83902l1.228943,-2.815979l-0.953979,-0.303009c-0.132935,-0.050018 -0.195007,-0.109009 -0.190979,-0.175995c0.020996,-0.296021 0.142029,-0.507019 0.363037,-0.634003l4.786987,-2.59201l1.699951,4.347015c0.059021,0.169983 0.087036,0.30899 0.078003,0.426971c-0.010986,0.180023 -0.098938,0.313019 -0.254944,0.39801l-0.884033,-0.291992l-2.789001,6.588989c-0.411011,0.957001 -0.642029,1.828003 -0.697021,2.609009c-0.029968,0.436005 -0.02301,0.877014 0.02002,1.322998l-2.755981,-5.931zm9.501038,3.677002l-4.927063,2.924988c-0.880005,0.522003 -1.255981,-0.158997 -1.124023,-2.044983c0.048035,-0.700012 0.222046,-1.457001 0.51709,-2.270996c0.18396,-0.505005 0.615967,-1.520996 1.296936,-3.03299l4.729004,-2.628021l-0.491943,7.052002zm-1.77002,-13.319l-4.017029,-1.828003l2.867981,-6.681c0.260986,-0.612 0.717041,-1.070007 1.367004,-1.367981c1.065002,-0.490997 1.955017,0.560974 2.674988,3.125977l-2.892944,6.751007zm8.772949,8.195007c-0.315002,0.881989 -0.800964,1.515991 -1.458984,1.906006l-1.820007,1.079987l-0.112976,1.647003c-0.01001,0.139008 -0.078003,0.269012 -0.20105,0.391998c-0.127014,0.14801 -0.261902,0.089996 -0.398987,-0.171997l-1.878967,-3.571991l2.502991,-6.511993c0.049988,-0.123016 0.122986,-0.210999 0.220032,-0.263c0.130981,-0.070007 0.181946,0.087982 0.153992,0.475983l-0.070007,0.993988l3.254944,-1.802979c0.736023,-0.410004 1.30603,-0.820007 1.712036,-1.233002c0.505005,-0.51001 0.987,-1.229004 1.44397,-2.152008l-3.346985,9.212006zm3.491028,-11.257996c-0.049011,0.677979 -0.346008,1.450989 -0.89502,2.333008c-0.520996,0.840973 -1.005981,1.388977 -1.455994,1.63797l-1.910034,1.048004l-1.936951,-4.368988l4.190979,-5.388l1.86499,3.924988c0.117981,0.230011 0.166016,0.502014 0.142029,0.813019z"/>
   </g>
  </g>
  <line fill="none" stroke-width="0.5" stroke-opacity="null" fill-opacity="null" x1="300" y1="592.502544" x2="300" y2="770.495904" id="svg_12" stroke-linejoin="null" stroke-linecap="null" stroke="#000"/>
  <g id="svg_7">
   <text stroke="#000" xml:space="preserve" text-anchor="left" font-family="'Palatino Linotype', 'Book Antiqua', Palatino, serif" font-size="125" id="svg_34" y="146.500722" x="393.014251" fill-opacity="null" stroke-opacity="null" stroke-width="0" fill="#000000" font-style="normal" font-weight="bold">24</text>
   <text fill="#000000" stroke="#000" stroke-width="0" stroke-opacity="null" fill-opacity="null" x="523.869879" y="88.509386" id="svg_14" font-size="60" font-family="'Palatino Linotype', 'Book Antiqua', Palatino, serif" text-anchor="left" xml:space="preserve" font-weight="bold">&#176;C</text>
  </g>
  <g id="svg_8">
   <text stroke="#000" xml:space="preserve" text-anchor="left" font-family="'Palatino Linotype', 'Book Antiqua', Palatino, serif" font-size="50" id="svg_39" y="219.019946" x="393.009861" fill-opacity="null" stroke-opacity="null" stroke-width="0" fill="#000000" font-weight="bold">32&#176;</text>
   <text stroke="#000" xml:space="preserve" text-anchor="left" font-family="'Palatino Linotype', 'Book Antiqua', Palatino, serif" font-size="50" id="svg_21" y="219.019993" x="501.011869" fill-opacity="null" stroke-opacity="null" stroke-width="0" fill="#000000" font-weight="bold">32&#176;</text>
   <line stroke-linecap="undefined" stroke-linejoin="undefined" id="svg_4" y2="227.265625" x2="478.007813" y1="177.265625" x1="478.007813" stroke="#000" fill="none"/>
  </g>
  <text font-weight="bold" xml:space="preserve" text-anchor="left" font-family="'Palatino Linotype', 'Book Antiqua', Palatino, serif" font-size="30" id="svg_11" y="116.5" x="256" fill-opacity="null" stroke-opacity="null" stroke-width="0" stroke="#000" fill="#000000">Sunny</text>
  <text xml:space="preserve" text-anchor="left" font-family="'Palatino Linotype', 'Book Antiqua', Palatino, serif" font-size="12" id="svg_13" y="13.5" x="430" fill-opacity="null" stroke-opacity="null" stroke-width="0" stroke="#000" fill="#000000">Thu, 05 Nov 2015 10:49 am EST</text>
  <line stroke-linecap="undefined" stroke-linejoin="undefined" id="svg_17" y2="354.265625" x2="300" y1="304.265625" x1="300" stroke="#000" fill="none" stroke-width="0.5"/>
  <line stroke="#000" fill="none" stroke-opacity="null" fill-opacity="null" x1="-1.673248" y1="394.5" x2="601.673267" y2="394.5" id="svg_5" stroke-linejoin="undefined" stroke-linecap="undefined"/>
  <text fill="#000000" stroke="#000" stroke-width="0" stroke-opacity="null" fill-opacity="null" x="143.25" y="361.5" id="svg_6" font-size="20" font-family="'Palatino Linotype', 'Book Antiqua', Palatino, serif" text-anchor="left" xml:space="preserve" font-weight="bold">Cloudy</text>
  <g id="svg_18" stroke="null">
   <text xml:space="preserve" text-anchor="left" font-family="'Palatino Linotype', 'Book Antiqua', Palatino, serif" font-size="32" id="svg_15" y="330.262134" x="126.009861" fill-opacity="null" stroke-opacity="null" stroke-width="0" fill="#000000" font-weight="bold" stroke="#000">32&#176;</text>
   <text xml:space="preserve" text-anchor="left" font-family="'Palatino Linotype', 'Book Antiqua', Palatino, serif" font-size="32" id="svg_16" y="330.26218" x="184.011869" fill-opacity="null" stroke-opacity="null" stroke-width="0" fill="#000000" font-weight="bold" stroke="#000">32&#176;</text>
  </g>
  <g stroke="null" id="svg_73">
   <g stroke="null" transform="matrix(1.5379192782463114,0,0,1.5379192782463114,385.429842519551,266.62930617973706) " id="svg_20">
    <path stroke="null" id="svg_19" d="m3.631902,53.284321c-6.89998,0 -12.5,-5.600018 -12.5,-12.500019s5.60002,-12.500031 12.5,-12.500031c6.90001,0 12.499999,5.60001 12.499999,12.500031s-5.699979,12.500019 -12.499999,12.500019zm0,-23.000029c-5.79999,0 -10.5,4.699999 -10.5,10.50001c0,5.80003 4.70001,10.500019 10.5,10.500019c5.80002,0 10.5,-4.699989 10.5,-10.500019c-0.09998,-5.800011 -4.79998,-10.50001 -10.5,-10.50001z" fill="#000000"/>
   </g>
   <g stroke="null" transform="matrix(1.5379192782463114,0,0,1.5379192782463114,385.429842519551,266.62930617973706) " id="svg_26">
    <g stroke="null" id="svg_23">
     <path stroke="null" id="svg_22" d="m3.631902,26.484283c-0.59999,0 -1,-0.400011 -1,-1l0,-5.500011c0,-0.599979 0.40001,-1 1,-1s1,0.400021 1,1l0,5.500011c0,0.599989 -0.5,1 -1,1z" fill="#000000"/>
    </g>
    <g stroke="null" id="svg_25">
     <path stroke="null" id="svg_24" d="m3.631902,62.584324c-0.59999,0 -1,-0.39999 -1,-0.999992l0,-5.500008c0,-0.599991 0.40001,-1 1,-1s1,0.400009 1,1l0,5.500008c0,0.5 -0.5,0.999992 -1,0.999992z" fill="#000000"/>
    </g>
   </g>
   <g stroke="null" transform="matrix(1.5379192782463114,0,0,1.5379192782463114,385.429842519551,266.62930617973706) " id="svg_31">
    <g stroke="null" id="svg_28">
     <path stroke="null" id="svg_27" d="m14.331922,30.984293c-0.3,0 -0.50001,-0.100021 -0.70002,-0.300022c-0.399961,-0.399979 -0.399961,-1 0,-1.399979l3.90001,-3.900011c0.400021,-0.399998 1,-0.399998 1.400021,0s0.399988,1 0,1.39999l-3.900011,3.9c-0.2,0.200001 -0.40001,0.300022 -0.7,0.300022z" fill="#000000"/>
    </g>
    <g stroke="null" id="svg_30">
     <path stroke="null" id="svg_29" d="m-11.068088,56.484344c-0.300011,0 -0.5,-0.100014 -0.69998,-0.300011c-0.40003,-0.400013 -0.40003,-1 0,-1.400013l3.899969,-3.899986c0.4,-0.400013 1,-0.400013 1.4,0s0.40001,1 0,1.399986l-3.9,3.900013c-0.199989,0.199997 -0.5,0.300011 -0.699989,0.300011z" fill="#000000"/>
    </g>
   </g>
   <g stroke="null" transform="matrix(1.5379192782463114,0,0,1.5379192782463114,385.429842519551,266.62930617973706) " id="svg_37">
    <g stroke="null" id="svg_33">
     <path stroke="null" id="svg_32" d="m24.331921,41.784302l-5.5,0c-0.599968,0 -1,-0.399998 -1,-1.000008s0.400032,-1 1,-1l5.5,0c0.600012,0 1,0.400009 1,1s-0.399988,1.000008 -1,1.000008z" fill="#000000"/>
    </g>
    <g stroke="null" id="svg_36">
     <path stroke="null" id="svg_35" d="m-11.668097,41.784302l-5.500001,0c-0.599968,0 -1,-0.399998 -1,-1.000008s0.400032,-1 1,-1l5.500001,0c0.60001,0 1.000019,0.400009 1.000019,1s-0.400009,1.000008 -1.000019,1.000008z" fill="#000000"/>
    </g>
   </g>
   <g stroke="null" transform="matrix(1.5379192782463114,0,0,1.5379192782463114,385.429842519551,266.62930617973706) " id="svg_43">
    <g stroke="null" id="svg_40">
     <path stroke="null" id="svg_38" d="m18.331921,56.484344c-0.299999,0 -0.5,-0.100014 -0.70001,-0.300011l-3.899988,-3.900013c-0.400001,-0.399986 -0.400001,-1 0,-1.399986s1.00001,-0.400013 1.399989,0l3.90001,3.899986c0.400002,0.400013 0.400002,1 0,1.400013c-0.200001,0.199997 -0.5,0.300011 -0.700001,0.300011z" fill="#000000"/>
    </g>
    <g stroke="null" id="svg_42">
     <path stroke="null" id="svg_41" d="m-7.168088,30.984293c-0.300011,0 -0.5,-0.100021 -0.70001,-0.300022l-3.89996,-3.9c-0.40004,-0.39999 -0.40004,-1 0,-1.39999s1,-0.399998 1.39996,0l3.9,3.900011c0.40001,0.399979 0.40001,1 0,1.399979c-0.199989,0.200001 -0.49999,0.300022 -0.699989,0.300022z" fill="#000000"/>
    </g>
   </g>
   <g stroke="null" transform="matrix(1.5379192782463114,0,0,1.5379192782463114,385.429842519551,266.62930617973706) " id="svg_72">
    <path stroke="null" id="svg_69" d="m6.831912,64.084328c-4.70001,0 -8.59998,-3.800007 -8.59998,-8.599995c0,-4.400002 3.29998,-7.900002 7.49999,-8.500011c-0.10002,-0.599991 -0.20001,-1.200008 -0.20001,-1.89999c0,-5.500038 4.40001,-9.900051 9.90001,-9.900051c4.30001,0 8.000009,2.80003 9.40001,6.700031c0.599998,-0.10001 1.1,-0.10001 1.699978,-0.10001c6.200012,0 11.10001,5.000019 11.10001,11.100033s-5.000008,11.10001 -11.10001,11.10001l-19.699998,0l0,0.099983z" fill="#000000"/>
    <path stroke="null" id="svg_70" d="m26.53191,65.084328l-19.699998,0c-5.3,0 -9.59998,-4.300007 -9.59998,-9.599995c0,-4.500011 3.09998,-8.300011 7.29998,-9.300011c0,-0.400009 -0.099989,-0.700001 -0.099989,-1.000011c0,-6.000008 4.9,-10.900028 10.9,-10.900028c4.40001,0 8.299989,2.60001 9.999999,6.600021c0.400009,0 0.700003,-0.10001 1.10001,-0.10001c6.699982,0 12.100014,5.400028 12.100014,12.10004s-5.300014,12.199993 -12.000034,12.199993zm-11.099988,-28.800026c-4.90001,0 -8.90001,4 -8.90001,8.900009c0,0.500011 0.09999,1.100002 0.20001,1.700024c0.09999,0.299988 0,0.599987 -0.20001,0.799969c-0.19999,0.200031 -0.40001,0.400028 -0.7,0.400028c-3.8,0.5 -6.59998,3.699989 -6.59998,7.499992c0,4.20002 3.39997,7.60001 7.59998,7.60001l19.799989,0c5.600029,0 10.100021,-4.5 10.100021,-10.10001s-4.499992,-10.10001 -10.100021,-10.10001c-0.49999,0 -1,0 -1.599977,0.10001c-0.500013,0.099987 -0.900013,-0.200001 -1.099991,-0.700012c-1.300022,-3.70002 -4.699991,-6.10001 -8.50001,-6.10001z" fill="#000000"/>
   </g>
  </g>
  <text fill="#000000" stroke="#000" stroke-width="0" stroke-opacity="null" fill-opacity="null" x="493.25" y="361.5" id="svg_74" font-size="20" font-family="'Palatino Linotype', 'Book Antiqua', Palatino, serif" text-anchor="left" xml:space="preserve" font-weight="bold">Cloudy</text>
  <g id="svg_77" stroke="null">
   <text xml:space="preserve" text-anchor="left" font-family="'Palatino Linotype', 'Book Antiqua', Palatino, serif" font-size="32" id="svg_75" y="330.262134" x="476.009861" fill-opacity="null" stroke-opacity="null" stroke-width="0" fill="#000000" font-weight="bold" stroke="#000">32&#176;</text>
   <text xml:space="preserve" text-anchor="left" font-family="'Palatino Linotype', 'Book Antiqua', Palatino, serif" font-size="32" id="svg_76" y="330.26218" x="534.011869" fill-opacity="null" stroke-opacity="null" stroke-width="0" fill="#000000" font-weight="bold" stroke="#000">32&#176;</text>
  </g>
  <text stroke="#000" transform="matrix(33.20000076293945,0,0,2.9506173133850098,-1239.700029373169,-819.2592716217041) " xml:space="preserve" text-anchor="left" font-family="'Palatino Linotype', 'Book Antiqua', Palatino, serif" font-size="30" id="svg_79" y="451.5" x="38.5" fill-opacity="null" stroke-opacity="null" stroke-width="0" fill="#000000"/>
  <text xml:space="preserve" text-anchor="left" font-family="'Palatino Linotype', 'Book Antiqua', Palatino, serif" font-size="30" id="svg_81" y="434.5" x="123.5" fill-opacity="null" stroke-opacity="null" stroke-width="0" stroke="#000" fill="#000000">09:00</text>
  <text xml:space="preserve" text-anchor="left" font-family="'Palatino Linotype', 'Book Antiqua', Palatino, serif" font-size="30" id="svg_82" y="434.5" x="210.5" fill-opacity="null" stroke-opacity="null" stroke-width="0" stroke="#000" fill="#000000">Tanvi Day Off</text>
  <text xml:space="preserve" text-anchor="left" font-family="'Palatino Linotype', 'Book Antiqua', Palatino, serif" font-size="30" id="svg_89" y="434.5" x="4.5" fill-opacity="null" stroke-opacity="null" stroke-width="0" stroke="#000" fill="#000000">Nov, 07</text>
  <text style="cursor: move;" xml:space="preserve" text-anchor="left" font-family="'Palatino Linotype', 'Book Antiqua', Palatino, serif" font-size="30" id="svg_92" y="485.5" x="123.5" fill-opacity="null" stroke-opacity="null" stroke-width="0" stroke="#000" fill="#000000">10:30</text>
  <text style="cursor: move;" xml:space="preserve" text-anchor="left" font-family="'Palatino Linotype', 'Book Antiqua', Palatino, serif" font-size="30" id="svg_93" y="485.5" x="210.5" fill-opacity="null" stroke-opacity="null" stroke-width="0" stroke="#000" fill="#000000">Dia's Shots</text>
  <text xml:space="preserve" text-anchor="left" font-family="'Palatino Linotype', 'Book Antiqua', Palatino, serif" font-size="30" id="svg_94" y="485.5" x="4.5" fill-opacity="null" stroke-opacity="null" stroke-width="0" stroke="#000" fill="#000000">Nov, 08</text>
  <text style="cursor: move;" xml:space="preserve" text-anchor="left" font-family="'Palatino Linotype', 'Book Antiqua', Palatino, serif" font-size="30" id="svg_95" y="535.5" x="123.5" fill-opacity="null" stroke-opacity="null" stroke-width="0" stroke="#000" fill="#000000">10:30</text>
  <text style="cursor: move;" xml:space="preserve" text-anchor="left" font-family="'Palatino Linotype', 'Book Antiqua', Palatino, serif" font-size="30" id="svg_96" y="535.5" x="210.5" fill-opacity="null" stroke-opacity="null" stroke-width="0" stroke="#000" fill="#000000">Tanvi's Shots</text>
  <text xml:space="preserve" text-anchor="left" font-family="'Palatino Linotype', 'Book Antiqua', Palatino, serif" font-size="30" id="svg_97" y="535.5" x="4.5" fill-opacity="null" stroke-opacity="null" stroke-width="0" stroke="#000" fill="#000000">Nov, 08</text>
 </g>
</svg>