<?xml version="1.0" encoding="utf-8"?>
<!-- Generated by IcoMoon.io -->
<!DOCTYPE svg PUBLIC "-//W3C//DTD SVG 1.1//EN" "http://www.w3.org/Graphics/SVG/1.1/DTD/svg11.dtd">
<svg version="1.1" xmlns="http://www.w3.org/2000/svg" xmlns:xlink="http://www.w3.org/1999/xlink" width="82" height="72" viewBox="0 0 82 72">
<path fill="#444444" d="M0 43.102q0 6.223 3.727 11.127t9.668 6.697l-2.426 6.363q-0.246 0.773 0.527 0.773h7.945l-4.852 15.68h1.055l15.855-21.094q0.211-0.246 0.070-0.51t-0.527-0.264h-8.156l9.281-17.402q0.387-0.809-0.492-0.809h-11.109q-0.492 0-0.844 0.563l-4.008 10.793q-4.008-1.020-6.662-4.377t-2.654-7.541q0-4.676 3.182-8.121t7.893-4.008l1.969-0.281q0.738 0 0.738-0.668l0.281-1.898q0.598-6.082 5.15-10.195t10.705-4.113q6.117 0 10.723 4.131t5.238 10.178l0.281 2.145q0 0.703 0.633 0.703h6.082q5.098 0 8.719 3.568t3.621 8.561q0 4.781-3.375 8.297t-8.262 3.867q-0.703 0-0.703 0.703v5.098q0 0.668 0.703 0.668 7.488-0.246 12.709-5.678t5.221-12.955q0-4.887-2.461-9.176 4.289-4.148 5.66-9.844l0.703-2.566q0.035-0.035 0.035-0.246 0-0.457-0.563-0.598l-2.32-0.633q-3.234-0.949-5.484-3.146t-3.182-4.57-0.896-4.729q0-1.547 0.387-3.199l0.422-2.285q0.141-0.563-0.527-0.879l-2.988-0.914q-2.637-0.527-4.641-0.527-2.074-0.035-4.236 0.439t-4.447 1.512-4.412 2.953-3.709 4.518q-4.781-1.723-8.93-1.723-7.945 0-14.098 4.939t-7.91 12.604q-6.223 1.477-10.266 6.521t-4.043 11.549zM30.656 80.086q0 0.879 0.58 1.758t1.705 1.23q0.879 0.176 1.020 0.176 0.527 0 1.371-0.387 1.16-0.563 1.582-1.969l1.055-3.938q0.352-1.23-0.299-2.373t-1.986-1.529q-1.23-0.352-2.373 0.316t-1.529 2.004l-1.020 3.762zM35.684 62.262q0 2.426 2.285 2.813 0.773 0.176 1.020 0.176 2.109 0 2.883-2.355l1.125-3.832q0.352-1.23-0.316-2.373t-2.004-1.529q-1.266-0.387-2.408 0.264t-1.529 1.986l-0.949 3.797q-0.105 0.492-0.105 1.055zM46.195 68.52q0.070 0.949 0.668 1.811t1.793 1.283q0.914 0.211 1.23 0.211 1.934 0 2.672-2.531l0.914-3.832q0.387-1.301-0.229-2.461t-1.881-1.547q-1.406-0.352-2.549 0.316t-1.389 2.004l-1.090 3.867q0 0.141-0.070 0.439t-0.070 0.439zM50.625 12.656q1.863-3.129 5.027-4.834t6.609-1.705h0.809v1.195q0 3.586 1.266 6.961t3.814 6.223 6.029 4.535q-0.949 2.109-2.848 3.867-5.133-4.395-12.059-4.395h-1.23q-1.582-7.066-7.418-11.848zM51.363 50.52q0 2.426 2.426 3.094 0.773 0.141 1.125 0.141 2.039 0 2.777-2.426l1.055-3.902q0.035-0.281 0.035-0.809 0.070-0.949-0.527-1.846t-1.828-1.248q-0.070 0-0.369-0.053t-0.475-0.053q-0.914 0-1.793 0.58t-1.23 1.775l-1.090 3.832q0 0.035-0.053 0.387t-0.053 0.527z"></path>
</svg>
