<?xml version="1.0" encoding="utf-8"?>
<!-- Generated by IcoMoon.io -->
<!DOCTYPE svg PUBLIC "-//W3C//DTD SVG 1.1//EN" "http://www.w3.org/Graphics/SVG/1.1/DTD/svg11.dtd">
<svg version="1.1" xmlns="http://www.w3.org/2000/svg" xmlns:xlink="http://www.w3.org/1999/xlink" width="80" height="72" viewBox="0 0 80 72">
<path fill="#444444" d="M0 43.102q0 5.027 2.461 9.299t6.715 6.768 9.281 2.496h40.535q5.027 0 9.299-2.496t6.768-6.768 2.496-9.299q0-3.586-1.582-7.488 4.254-5.203 4.254-12.375 0-5.344-2.602-9.861t-7.119-7.154-9.861-2.637q-8.402 0-14.52 6.539-4.289-2.426-10.090-2.426-7.91 0-13.975 4.887t-7.787 12.551q-6.293 1.406-10.283 6.434t-3.99 11.531zM6.398 43.102q0-4.676 3.129-8.086t7.875-3.973l2.566-0.105 0.246-2.707q0.773-6.082 5.273-10.178t10.547-4.096q6.152 0 10.723 4.113t5.168 10.16l0.387 2.813h6.68q4.957 0 8.543 3.568t3.586 8.49q0 5.063-3.568 8.684t-8.561 3.621h-40.535q-4.887 0-8.473-3.656t-3.586-8.648zM51.504 13.711q3.867-3.727 9.141-3.727 5.555 0 9.439 3.85t3.885 9.404q0 3.48-1.934 6.891-5.379-5.379-13.043-5.379h-1.16q-1.547-6.258-6.328-11.039z"></path>
</svg>
