<?xml version="1.0" encoding="utf-8"?>
<!-- Generated by IcoMoon.io -->
<!DOCTYPE svg PUBLIC "-//W3C//DTD SVG 1.1//EN" "http://www.w3.org/Graphics/SVG/1.1/DTD/svg11.dtd">
<svg version="1.1" xmlns="http://www.w3.org/2000/svg" xmlns:xlink="http://www.w3.org/1999/xlink" width="62" height="72" viewBox="0 0 62 72">
<path fill="#444444" d="M0 53.297q0 5.449 3.99 9.439t9.439 3.99h25.699q5.449 0 9.334-3.938t3.885-9.492q0-2.707-0.773-4.605 4.676-2.988 7.4-7.963t2.725-10.635q0-4.57-1.775-8.736t-4.799-7.172-7.172-4.799-8.684-1.793q-6.152 0-11.338 3.023t-8.156 8.191-2.971 11.285v1.266q-5.66 3.234-7.453 9.352-4.254 1.336-6.803 4.746t-2.549 7.84zM7.418 53.297q0-2.355 1.512-4.043t3.832-1.898l2.355-0.316q0.703 0 0.703-0.844l0.387-2.109q0.387-3.234 2.725-5.414t5.537-2.18q3.27 0 5.678 2.18t2.795 5.414l0.316 2.426q0.352 0.844 0.949 0.844h4.922q2.426 0 4.201 1.758t1.775 4.184q0 2.531-1.775 4.324t-4.201 1.793h-25.699q-2.531 0-4.271-1.793t-1.74-4.324zM24.012 29.32q0.387-6.152 4.764-10.336t10.494-4.184q6.258 0 10.635 4.465t4.377 10.828q0 3.938-1.898 7.295t-5.168 5.432q-3.305-2.742-7.629-2.742-1.652-4.922-5.783-7.84t-9.334-2.918h-0.457z"></path>
</svg>
