<?xml version="1.0" encoding="utf-8"?>
<!-- Generated by IcoMoon.io -->
<!DOCTYPE svg PUBLIC "-//W3C//DTD SVG 1.1//EN" "http://www.w3.org/Graphics/SVG/1.1/DTD/svg11.dtd">
<svg version="1.1" xmlns="http://www.w3.org/2000/svg" xmlns:xlink="http://www.w3.org/1999/xlink" width="80" height="72" viewBox="0 0 80 72">
<path fill="#000000" d="M0 43.102q0 6.258 3.727 11.18t9.598 6.574l-2.391 6.293q-0.281 0.809 0.527 0.809h7.945l-3.902 15.715h1.055l14.871-21.094q0.211-0.246 0.053-0.527t-0.545-0.281h-8.156l9.281-17.297q0.387-0.809-0.527-0.809h-11.039q-0.492 0-0.844 0.527l-4.008 10.758q-4.008-0.984-6.627-4.289t-2.619-7.559q0-4.676 3.146-8.104t7.857-3.99l2.004-0.141q0.668 0 0.668-0.668l0.281-2.004q0.387-3.973 2.602-7.26t5.713-5.15 7.541-1.863q6.082 0 10.652 4.113t5.203 10.16l0.281 2.109q0 0.703 0.633 0.703h6.082q4.992 0 8.631 3.586t3.639 8.508q0 4.852-3.375 8.42t-8.156 3.814q-0.738 0-0.738 0.668v5.027q0 0.633 0.738 0.633 4.887-0.141 9-2.689t6.469-6.768 2.355-9.105q0-4.113-1.582-7.523 4.395-5.203 4.395-12.41 0-3.973-1.564-7.594t-4.201-6.258-6.258-4.201-7.594-1.564q-8.684 0-14.484 6.504-4.535-2.426-10.125-2.426-7.91 0-14.063 4.904t-7.875 12.568q-6.188 1.441-10.23 6.486t-4.043 11.514zM29.742 80.156q0 0.914 0.545 1.723t1.705 1.16l0.949 0.105q2.355 0 2.988-2.25l9.105-33.328q0.352-1.301-0.246-2.408t-1.828-1.494q-1.301-0.387-2.443 0.229t-1.494 1.881l-9.176 33.363q-0.105 0.949-0.105 1.020zM45.281 68.766q0 2.25 2.32 2.988 0.949 0.105 0.984 0.105 0.633 0 1.301-0.281 1.125-0.492 1.582-2.074l6.152-21.938q0.352-1.301-0.281-2.408t-1.898-1.494q-1.301-0.387-2.426 0.229t-1.477 1.881l-6.082 22.078q-0.176 0.809-0.176 0.914zM51.539 13.641q3.797-3.586 9.281-3.586 5.449 0 9.316 3.832t3.867 9.281q0 3.551-1.898 6.926-5.414-5.414-13.043-5.414h-1.195q-1.582-6.434-6.328-11.039z"></path>
</svg>
