<?xml version="1.0" encoding="utf-8"?>
<!-- Generated by IcoMoon.io -->
<!DOCTYPE svg PUBLIC "-//W3C//DTD SVG 1.1//EN" "http://www.w3.org/Graphics/SVG/1.1/DTD/svg11.dtd">
<svg version="1.1" xmlns="http://www.w3.org/2000/svg" xmlns:xlink="http://www.w3.org/1999/xlink" width="78" height="72" viewBox="0 0 78 72">
<path fill="#444444" d="M0 43.242q0-6.504 4.078-11.566t10.441-6.504q1.652-7.734 7.77-12.709t14.063-4.975q7.84 0 13.939 4.781t7.963 12.375h1.266q5.063 0 9.316 2.479t6.697 6.768 2.443 9.352q0 7.523-5.15 12.902t-12.639 5.625q-0.668 0-0.668-0.633v-5.027q0-0.633 0.668-0.633 4.746-0.387 8.121-3.92t3.375-8.314q0-5.027-3.586-8.648t-8.578-3.621h-6.117q-0.668 0-0.809-0.668l-0.281-2.145q-0.387-4.008-2.619-7.26t-5.748-5.098-7.594-1.846q-6.188 0-10.74 4.096t-5.15 10.213l-0.246 2.039q0 0.527-0.598 0.527l-1.969 0.281q-4.746 0.387-7.928 3.867t-3.182 8.262q0 4.887 3.322 8.42t8.139 3.814q0.668 0 0.668 0.633v5.027q0 0.633-0.668 0.633-3.691-0.176-7.031-1.688t-5.748-3.973-3.814-5.818-1.406-7.049zM20.32 68.625q0-0.176 0.070-0.492t0.070-0.422l1.020-3.867q0.387-1.266 1.494-1.916t2.408-0.264q1.266 0.387 1.934 1.494t0.281 2.408l-0.914 3.797q-0.738 2.461-2.848 2.461-0.141 0-0.334-0.018t-0.422-0.053-0.369-0.035q-1.195-0.352-1.793-1.283t-0.598-1.811zM25.277 50.555q0-0.141 0.053-0.422t0.053-0.352l1.125-3.938q0.352-1.090 1.195-1.67t1.758-0.58q0.141 0 0.299 0.018t0.352 0.053 0.299 0.035q1.266 0.387 1.916 1.494t0.264 2.408l-0.914 3.762q-0.387 1.547-1.512 2.197t-2.426 0.088q-1.23-0.352-1.846-1.266t-0.615-1.828zM29.883 80.367q0-0.176 0.070-0.475t0.070-0.439l1.090-3.727q0.352-1.336 1.494-2.021t2.443-0.299q1.266 0.387 1.898 1.529t0.246 2.443l-0.949 3.902q-0.598 2.285-2.988 2.285-0.281 0-0.914-0.141-1.23-0.211-1.846-1.143t-0.615-1.916zM34.91 62.473q0-0.316 0.141-0.949l1.020-3.867q0.387-1.266 1.529-1.916t2.443-0.264q1.266 0.352 1.898 1.459t0.211 2.443l-0.914 3.727q-0.703 2.531-2.707 2.531-0.246 0-1.16-0.211-1.23-0.246-1.846-1.107t-0.615-1.846zM45.492 68.766q0-0.387 0.105-0.914l1.055-3.727q0.387-1.336 1.529-2.021t2.373-0.334q1.301 0.387 1.986 1.529t0.334 2.373l-1.090 3.973q-0.563 2.285-2.953 2.285-0.527 0-0.984-0.105-1.125-0.211-1.723-1.143t-0.633-1.916zM50.66 50.906q0-0.176 0.176-0.984l1.125-3.867q0.211-1.195 1.090-1.775t1.828-0.51q0.246-0.035 0.914 0.105 1.23 0.281 1.934 1.441 0.668 0.949 0.281 2.426l-0.914 3.867q-0.738 2.426-2.848 2.426-0.352 0-1.266-0.211-1.16-0.352-1.74-1.178t-0.58-1.74z"></path>
</svg>
