<?xml version="1.0" encoding="utf-8"?>
<!-- Generated by IcoMoon.io -->
<!DOCTYPE svg PUBLIC "-//W3C//DTD SVG 1.1//EN" "http://www.w3.org/Graphics/SVG/1.1/DTD/svg11.dtd">
<svg version="1.1" xmlns="http://www.w3.org/2000/svg" xmlns:xlink="http://www.w3.org/1999/xlink" width="78" height="72" viewBox="0 0 78 72">
<path fill="#444444" d="M0 43.348q0 7.418 5.238 12.797t12.691 5.625q0.668 0 0.668-0.633v-4.992q0-0.668-0.668-0.668-4.746-0.246-8.156-3.814t-3.41-8.314q0-4.711 3.182-8.209t7.857-3.885l1.969-0.281q0.703 0 0.703-0.668l0.281-1.863q0.563-6.152 5.115-10.301t10.74-4.148q6.082 0 10.652 4.113t5.238 10.16l0.246 2.18q0 0.668 0.703 0.668h6.012q5.063 0 8.684 3.621t3.621 8.613q0 4.746-3.393 8.314t-8.174 3.814q-0.738 0-0.738 0.668v4.992q0 0.633 0.738 0.633 7.488-0.246 12.674-5.607t5.186-12.814q0-5.027-2.496-9.299t-6.785-6.75-9.316-2.479h-1.16q-1.863-7.523-7.91-12.322t-13.781-4.799q-7.91 0-14.063 4.922t-7.875 12.551q-6.328 1.617-10.301 6.627t-3.973 11.549zM20.285 69.68q0 0.949 0.615 1.898t1.775 1.301q1.301 0.387 2.391-0.141t1.477-2.109l0.527-2.285q0.281-1.266-0.352-2.373t-1.934-1.494q-1.266-0.387-2.408 0.281t-1.494 2.004l-0.527 2.215q-0.070 0.211-0.070 0.703zM23.133 58.816q0 1.195 0.949 2.145 0.879 0.949 2.109 0.949 1.336 0 2.25-0.896t0.914-2.197-0.914-2.197-2.25-0.896q-1.301 0-2.18 0.879t-0.879 2.215zM25.418 50.273q-0.070 0.879 0.51 1.705t1.811 1.213q1.16 0.352 2.32-0.264t1.547-1.916l1.055-3.375q0.422-1.371-0.246-2.443t-2.039-1.459q-1.23-0.387-2.373 0.246t-1.529 1.863l-0.914 3.445q0 0.105-0.070 0.439t-0.070 0.545zM29.777 81.387q0 0.984 0.58 1.863t1.811 1.23q0.457 0.105 0.949 0.105 2.391 0 2.953-2.285l0.527-2.215q0.352-1.441-0.316-2.566t-1.969-1.371q-1.195-0.387-2.355 0.264t-1.547 1.916l-0.527 2.215q-0.105 0.492-0.105 0.844zM32.695 70.488q0 1.23 0.949 2.18 0.914 0.914 2.145 0.914 1.336 0 2.215-0.879t0.879-2.215q0-1.301-0.879-2.18t-2.215-0.879-2.215 0.879-0.879 2.18zM35.051 61.98q-0.070 0.844 0.492 1.758t1.688 1.125q1.301 0.352 2.391-0.211t1.547-2.109l1.020-3.375q0.387-1.23-0.264-2.355t-1.986-1.512q-1.23-0.387-2.391 0.299t-1.547 1.986l-0.844 3.375q-0.105 0.457-0.105 1.020zM45.387 70.031q0 0.914 0.58 1.793t1.74 1.23q0.176 0 0.51 0.070t0.51 0.070q2.285 0 2.848-2.461l0.527-2.25q0.387-1.195-0.246-2.355t-1.898-1.547q-1.406-0.352-2.549 0.299t-1.529 1.986l-0.352 2.215q0 0.141-0.070 0.457t-0.070 0.492zM48.164 58.957q0 1.266 0.949 2.145 0.844 0.914 2.145 0.914 1.336 0 2.215-0.879t0.879-2.18q0-1.336-0.879-2.215t-2.215-0.879-2.215 0.879-0.879 2.215zM50.449 50.273q0 0.949 0.615 1.811t1.846 1.213q0.105 0 0.457 0.070t0.527 0.070q0.563 0 1.336-0.352 1.195-0.633 1.547-1.969l0.914-3.375q0.352-1.266-0.281-2.373t-1.898-1.494q-1.301-0.387-2.391 0.211t-1.477 1.898l-1.055 3.41q0 0.141-0.070 0.439t-0.070 0.439z"></path>
</svg>
