<?xml version="1.0" encoding="utf-8"?>
<!-- Generated by IcoMoon.io -->
<!DOCTYPE svg PUBLIC "-//W3C//DTD SVG 1.1//EN" "http://www.w3.org/Graphics/SVG/1.1/DTD/svg11.dtd">
<svg version="1.1" xmlns="http://www.w3.org/2000/svg" xmlns:xlink="http://www.w3.org/1999/xlink" width="57" height="72" viewBox="0 0 57 72">
<path fill="#000000" d="M0 33.785q0-1.090 0.738-1.863t1.793-0.773q1.090 0 1.828 0.773t0.738 1.863q0 1.055-0.756 1.793t-1.811 0.738-1.793-0.756-0.738-1.775zM7.418 33.785q0-1.090 0.738-1.863t1.793-0.773h12.094l-8.543-8.543q-0.773-0.703-0.773-1.775t0.773-1.846 1.828-0.773 1.828 0.773l8.508 8.508v-12.023q0-1.090 0.773-1.863t1.863-0.773q1.055 0 1.793 0.773t0.738 1.863v12.129l8.578-8.613q0.773-0.773 1.811-0.773t1.846 0.773q0.668 0.773 0.668 1.846t-0.668 1.775l-8.543 8.543h12.094q1.020 0 1.775 0.773t0.756 1.863q0 1.020-0.756 1.775t-1.775 0.756h-12.129l8.578 8.578q0.668 0.703 0.668 1.758t-0.668 1.828q-0.809 0.773-1.846 0.773t-1.811-0.773l-8.578-8.613v12.164q0 1.090-0.738 1.846t-1.793 0.756q-1.090 0-1.863-0.756t-0.773-1.846v-12.059l-8.508 8.508q-0.773 0.773-1.828 0.773t-1.828-0.773-0.773-1.828 0.773-1.758l8.613-8.578h-12.164q-1.055 0-1.793-0.756t-0.738-1.775zM7.488 51.943q0-1.037 0.773-1.811 0.703-0.773 1.775-0.773t1.846 0.773 0.773 1.811-0.773 1.811-1.846 0.773-1.775-0.773q-0.773-0.773-0.773-1.811zM7.488 15.521q0-1.037 0.773-1.811 0.703-0.773 1.775-0.773t1.846 0.773 0.773 1.811-0.773 1.846q-0.773 0.773-1.846 0.773t-1.775-0.773q-0.773-0.809-0.773-1.846zM25.664 59.449q0-1.020 0.773-1.775t1.863-0.756q1.055 0 1.793 0.756t0.738 1.775q0 1.090-0.738 1.846t-1.793 0.756q-1.090 0-1.863-0.756t-0.773-1.846zM25.664 8.016q0-1.090 0.773-1.846t1.863-0.756q1.055 0 1.793 0.756t0.738 1.846q0 1.020-0.738 1.775t-1.793 0.756q-1.090 0-1.863-0.756t-0.773-1.775zM43.91 51.943q0-1.037 0.773-1.811 0.703-0.773 1.775-0.773t1.846 0.773 0.773 1.811-0.773 1.811-1.846 0.773-1.775-0.773q-0.773-0.773-0.773-1.811zM43.91 15.521q0-1.037 0.773-1.811 0.703-0.773 1.775-0.773t1.846 0.773 0.773 1.811-0.773 1.846q-0.773 0.773-1.846 0.773t-1.775-0.773q-0.773-0.809-0.773-1.846zM51.434 33.785q0-1.090 0.756-1.863t1.846-0.773q1.020 0 1.775 0.773t0.756 1.863q0 1.020-0.756 1.775t-1.775 0.756q-1.090 0-1.846-0.756t-0.756-1.775z"></path>
</svg>
