<?xml version="1.0" encoding="utf-8"?>
<!-- Generated by IcoMoon.io -->
<!DOCTYPE svg PUBLIC "-//W3C//DTD SVG 1.1//EN" "http://www.w3.org/Graphics/SVG/1.1/DTD/svg11.dtd">
<svg version="1.1" xmlns="http://www.w3.org/2000/svg" xmlns:xlink="http://www.w3.org/1999/xlink" width="78" height="72" viewBox="0 0 78 72">
<path fill="#444444" d="M0 43.313q0-6.504 3.99-11.549t10.283-6.592q1.758-7.664 7.893-12.586t14.080-4.922q7.734 0 13.799 4.799t7.893 12.322h1.195q5.027 0 9.316 2.479t6.785 6.75 2.496 9.299q0 7.453-5.203 12.832t-12.656 5.625q-0.738 0-0.738-0.633v-4.992q0-0.668 0.738-0.668 4.781-0.246 8.174-3.814t3.393-8.35q0-4.992-3.621-8.613t-8.684-3.621h-6.047q-0.668 0-0.668-0.633l-0.281-2.18q-0.633-6.082-5.221-10.195t-10.67-4.113q-6.188 0-10.74 4.148t-5.15 10.301l-0.211 1.863q0 0.703-0.738 0.703l-1.969 0.246q-4.676 0.387-7.857 3.885t-3.182 8.209q0 4.781 3.393 8.35t8.174 3.814q0.633 0 0.633 0.668v4.992q0 0.633-0.633 0.633-7.523-0.246-12.744-5.625t-5.221-12.832zM20.637 72.176q0-1.301 0.949-2.25 0.914-0.844 2.145-0.844 1.301 0 2.197 0.879t0.896 2.215-0.896 2.215-2.197 0.879-2.197-0.879-0.896-2.215zM23.871 58.57q0-1.266 0.896-2.18t2.197-0.914 2.197 0.914 0.896 2.18q0 1.336-0.896 2.268t-2.197 0.932-2.197-0.932-0.896-2.268zM31.008 79.523q0-1.266 0.949-2.285 0.914-0.914 2.145-0.914 1.336 0 2.285 0.949t0.949 2.25-0.949 2.197-2.285 0.896q-1.266 0-2.18-0.896t-0.914-2.197zM34.242 65.813q0-1.336 0.914-2.32 0.914-0.914 2.18-0.914 1.301 0 2.25 0.949t0.949 2.285q0 1.301-0.932 2.232t-2.268 0.932q-1.266 0-2.18-0.932t-0.914-2.232zM35.824 52.242q0-1.301 0.949-2.25 0.984-0.914 2.145-0.914 1.336 0 2.285 0.932t0.949 2.232-0.949 2.197-2.285 0.896q-1.266 0-2.18-0.896t-0.914-2.197zM44.719 72.176q0-1.266 0.914-2.25 0.914-0.844 2.25-0.844t2.215 0.879 0.879 2.215-0.879 2.215-2.215 0.879-2.25-0.896-0.914-2.197zM47.918 58.57q0-1.23 0.949-2.162t2.25-0.932 2.197 0.914 0.896 2.18q0 1.336-0.896 2.268t-2.197 0.932q-1.336 0-2.268-0.949t-0.932-2.25z"></path>
</svg>
