<?xml version="1.0" encoding="utf-8"?>
<!-- Generated by IcoMoon.io -->
<!DOCTYPE svg PUBLIC "-//W3C//DTD SVG 1.1//EN" "http://www.w3.org/Graphics/SVG/1.1/DTD/svg11.dtd">
<svg version="1.1" xmlns="http://www.w3.org/2000/svg" xmlns:xlink="http://www.w3.org/1999/xlink" width="72" height="72" viewBox="0 0 72 72">
<path fill="#444444" d="M0 40.43q3.656-0.176 6.188-2.83t2.531-6.311q0 3.656 2.531 6.311t6.188 2.83q-3.656 0.176-6.188 2.83t-2.531 6.311q0-3.656-2.531-6.311t-6.188-2.83zM8.719 13.43q7.102-0.352 12.041-5.502t4.939-12.287q0 7.137 4.957 12.287t12.059 5.502q-4.676 0.211-8.578 2.654t-6.17 6.469-2.268 8.736q0-7.172-4.939-12.34t-12.041-5.52zM21.164 53.824q5.344-0.246 9.070-4.131t3.727-9.264q0 5.379 3.709 9.264t9.053 4.131q-5.344 0.246-9.053 4.131t-3.709 9.264q0-5.379-3.727-9.264t-9.070-4.131zM46.723 36.035q5.344-0.246 9.035-4.113t3.691-9.281q0 5.379 3.727 9.264t9.070 4.131q-5.344 0.246-9.070 4.113t-3.727 9.246q0-5.379-3.691-9.246t-9.035-4.113z"></path>
</svg>
