<?xml version="1.0" encoding="utf-8"?>
<!-- Generated by IcoMoon.io -->
<!DOCTYPE svg PUBLIC "-//W3C//DTD SVG 1.1//EN" "http://www.w3.org/Graphics/SVG/1.1/DTD/svg11.dtd">
<svg version="1.1" xmlns="http://www.w3.org/2000/svg" xmlns:xlink="http://www.w3.org/1999/xlink" width="89" height="72" viewBox="0 0 89 72">
<path fill="#444444" d="M0 43.383q0 1.371 1.055 2.32 0.914 1.055 2.355 1.055h55.090q1.617 0 2.742 1.125t1.125 2.777q0 1.617-1.107 2.689t-2.76 1.072-2.742-1.090q-0.914-0.984-2.25-0.984-1.406 0-2.408 0.967t-1.002 2.303q0 1.406 1.055 2.355 3.164 3.094 7.348 3.094 4.395 0 7.523-3.023t3.129-7.383-3.146-7.506-7.506-3.146h-55.090q-1.406 0-2.408 0.984t-1.002 2.391zM0 31.078q0 1.301 1.055 2.285 0.984 0.984 2.355 0.984h75.164q4.395 0 7.541-3.059t3.146-7.383q0-4.359-3.146-7.453t-7.541-3.094q-4.324 0-7.313 2.988-1.020 0.914-1.020 2.496 0 1.441 0.967 2.355t2.373 0.914q1.371 0 2.355-0.914 1.055-1.16 2.637-1.16 1.617 0 2.725 1.125t1.107 2.742-1.107 2.707-2.725 1.090h-75.164q-1.406 0-2.408 0.984t-1.002 2.391z"></path>
</svg>
