<?xml version="1.0" encoding="utf-8"?>
<!-- Generated by IcoMoon.io -->
<!DOCTYPE svg PUBLIC "-//W3C//DTD SVG 1.1//EN" "http://www.w3.org/Graphics/SVG/1.1/DTD/svg11.dtd">
<svg version="1.1" xmlns="http://www.w3.org/2000/svg" xmlns:xlink="http://www.w3.org/1999/xlink" width="101" height="72" viewBox="0 0 101 72">
<path fill="#444444" d="M0 43.066q0 6.293 3.744 11.25t9.686 6.609l-2.461 6.363q-0.281 0.809 0.527 0.809h7.98l-5.344 15.785h1.090l16.348-21.234q0.211-0.246 0.070-0.51t-0.527-0.264h-8.227l9.352-17.438q0.422-0.809-0.527-0.809h-11.109q-0.527 0-0.879 0.563l-4.008 10.793q-4.043-1.020-6.68-4.342t-2.637-7.576q0-4.746 3.164-8.191t7.91-4.008l1.898-0.105q0.668 0 0.844-0.527l0.281-2.215q0.598-6.082 5.15-10.213t10.74-4.131q6.117 0 10.74 4.131t5.256 10.213l0.281 2.215q0 0.633 0.668 0.633h6.047q5.027 0 8.648 3.604t3.621 8.596q0 4.887-3.357 8.49t-8.174 3.85q-0.738 0-0.738 0.668v5.027q0 0.633 0.738 0.633 4.957-0.141 9.088-2.689t6.521-6.785 2.391-9.193q0-4.113-1.617-7.559 4.289-5.414 4.289-12.34 0-5.344-2.654-9.896t-7.207-7.207-9.896-2.654q-4.043 0-7.857 1.688t-6.592 4.676q-4.535-2.426-10.195-2.426-7.98 0-14.15 4.939t-7.893 12.639q-6.223 1.441-10.283 6.539t-4.061 11.602zM30.691 80.262q0 0.844 0.598 1.758t1.723 1.266q0.633 0.141 0.949 0.141 0.844 0 1.441-0.281 1.195-0.457 1.617-2.145l1.020-3.867q0.352-1.406-0.316-2.514t-2.004-1.389q-1.16-0.387-2.32 0.281t-1.582 1.934l-0.949 3.902q-0.176 0.773-0.176 0.914zM31.57-3.023q0 1.301 0.949 2.25l2.426 2.461q0.879 0.879 2.074 0.984 1.16 0.176 2.285-0.844t1.125-2.391q0-1.301-0.949-2.25l-2.355-2.461q-0.914-0.914-2.25-0.914-1.406 0-2.355 0.914t-0.949 2.25zM35.719 62.262q-0.035 0.914 0.527 1.775t1.793 1.213q1.195 0.387 2.338-0.229t1.564-2.092l1.125-3.867q0.387-1.23-0.299-2.373t-2.021-1.529q-1.266-0.387-2.408 0.264t-1.529 1.986l-0.914 3.938q-0.176 0.773-0.176 0.914zM46.336 68.555q0 0.809 0.387 1.477 0.738 1.195 2.039 1.617 0.633 0.211 1.055 0.211 0.703 0 1.16-0.281 1.125-0.422 1.688-2.25l0.949-3.797q0.387-1.336-0.246-2.443t-1.898-1.459q-1.301-0.387-2.443 0.246t-1.529 1.898l-1.055 3.902q-0.105 0.492-0.105 0.879zM51.469 50.484q0 0.984 0.615 1.881t1.846 1.248q0.949 0.316 2.285-0.176 1.125-0.492 1.617-2.145l1.020-3.762q0.352-1.406-0.299-2.514t-1.986-1.389q-1.266-0.387-2.391 0.229t-1.512 1.881l-1.090 3.973q-0.105 0.738-0.105 0.773zM51.855 13.57q3.762-3.621 9.176-3.621 5.52 0 9.404 3.85t3.885 9.369q0 3.691-1.758 6.785-5.414-5.414-13.184-5.414h-1.16q-1.652-6.68-6.363-10.969zM57.832-6.188q0 1.336 0.932 2.285t2.268 0.949 2.232-0.932 0.896-2.303v-7.734q0-1.371-0.896-2.303t-2.232-0.932-2.268 0.949-0.932 2.285v7.734zM78.75 2.391q0 1.371 0.879 2.25 0.773 0.879 2.057 0.967t2.373-0.967l5.414-5.414q0.984-0.914 0.984-2.25t-0.984-2.25q-0.914-0.984-2.25-0.984-1.301 0-2.18 0.984l-5.414 5.414q-0.879 0.879-0.879 2.25zM81.668 47.074q0 1.301 0.949 2.25l2.426 2.355q1.020 0.949 2.32 0.949l0.070 0.070q1.23 0 2.039-1.020 0.984-0.914 0.984-2.25 0-1.301-0.984-2.285l-2.32-2.32q-1.020-1.020-2.285-1.020-1.336 0-2.268 0.967t-0.932 2.303zM87.152 23.168q0 1.371 0.984 2.215 0.879 0.984 2.25 0.984h7.734q1.336 0 2.285-0.932t0.949-2.268-0.932-2.232-2.303-0.896h-7.734q-1.371 0-2.303 0.896t-0.932 2.232z"></path>
</svg>
