<?xml version="1.0" encoding="utf-8"?>
<!-- Generated by IcoMoon.io -->
<!DOCTYPE svg PUBLIC "-//W3C//DTD SVG 1.1//EN" "http://www.w3.org/Graphics/SVG/1.1/DTD/svg11.dtd">
<svg version="1.1" xmlns="http://www.w3.org/2000/svg" xmlns:xlink="http://www.w3.org/1999/xlink" width="52" height="72" viewBox="0 0 52 72">
<path fill="#000000" d="M0 36.457q0 2.496 2.602 4.254 4.746 3.34 14.344 3.34 4.324 0 8.016-0.738 3.902-0.844 6.363-2.637t2.461-4.219q0-0.738-0.281-1.477 4.992-1.23 7.84-3.322t2.848-4.799q0-0.668-0.211-1.441 8.227-2.918 8.227-7.875 0-3.164-3.586-5.625-7.031-4.676-20.602-4.676-6.398 0-11.602 1.125-5.59 1.125-9.053 3.586t-3.463 5.59q0 1.863 1.16 3.41-4.254 2.426-4.254 5.906 0 2.707 2.637 4.746-3.445 2.004-3.445 4.852zM1.441 47.25q0 2.637 3.252 4.131t8.174 1.494q4.992 0 8.262-1.494t3.27-4.131q0-0.984-0.633-1.652t-1.617-0.668q-0.809 0-1.441 0.563t-0.809 1.371q-0.703 0.563-2.637 1.037t-4.395 0.475q-3.973 0-6.434-1.125 0.563-0.563 0.615-1.441t-0.369-1.477q-0.563-0.773-1.459-0.949t-1.67 0.316q-2.109 1.406-2.109 3.551zM4.5 36.457q0-0.035 0.457-0.422 0.316-0.316 1.354-0.809t2.303-0.844l0.281-0.141q5.836 1.934 13.605 1.934 3.41 0 6.188-0.387l0.633 0.563q-0.316 0.563-1.512 1.195-1.441 0.773-4.465 1.371t-6.398 0.598-6.416-0.598-4.518-1.371q-1.195-0.527-1.512-1.090zM4.781 56.672q0 2.285 2.584 3.516t6.416 1.23q3.902 0 6.539-1.23t2.637-3.516q0-0.914-0.668-1.617t-1.582-0.703q-1.688 0-2.215 1.723-1.406 0.879-4.711 0.879-2.883 0-4.605-0.879-0.527-1.723-2.215-1.723-0.914 0-1.547 0.668t-0.633 1.652zM5.273 26.859q0-0.281 0.352-0.668 0.879-1.090 3.41-2.109 6.926 3.691 18.984 3.691 6.152 0 11.566-1.125v0.211q0 0.527-0.668 1.090-1.477 1.301-5.484 2.461-4.359 1.301-10.934 1.301-6.609 0-10.969-1.301-4.184-1.16-5.59-2.461-0.668-0.527-0.668-1.090zM8.402 17.543q0-0.633 0.844-1.406 1.617-1.512 6.434-2.918 5.133-1.512 12.34-1.512 7.242 0 12.445 1.512 4.852 1.406 6.434 2.918 0.809 0.809 0.809 1.406t-0.809 1.336q-1.582 1.512-6.434 2.953-5.203 1.512-12.445 1.512-7.207 0-12.34-1.512-4.852-1.406-6.434-2.953-0.844-0.738-0.844-1.336z"></path>
</svg>
