<?xml version="1.0" encoding="utf-8"?>
<!-- Generated by IcoMoon.io -->
<!DOCTYPE svg PUBLIC "-//W3C//DTD SVG 1.1//EN" "http://www.w3.org/Graphics/SVG/1.1/DTD/svg11.dtd">
<svg version="1.1" xmlns="http://www.w3.org/2000/svg" xmlns:xlink="http://www.w3.org/1999/xlink" width="78" height="72" viewBox="0 0 78 72">
<path fill="#444444" d="M0 37.863q0-1.266 0.879-2.109t2.145-0.844h45.316q1.23 0 2.039 0.826t0.809 2.127q0 1.23-0.809 2.039t-2.039 0.809h-45.316q-1.266 0-2.145-0.809t-0.879-2.039zM9.070 27q0-1.23 0.879-2.074 0.844-0.844 2.109-0.844h45.352q1.195 0 2.021 0.844t0.826 2.074-0.826 2.092-2.021 0.861h-45.352q-1.23 0-2.109-0.861t-0.879-2.092zM15.117 48.516q0-1.195 0.914-2.039 0.809-0.809 2.039-0.809h45.387q1.266 0 2.109 0.809t0.844 2.039-0.861 2.109-2.092 0.879h-45.387q-1.23 0-2.092-0.879t-0.861-2.109zM54.809 37.863q0-1.301 0.826-2.127t2.127-0.826h16.945q1.301 0 2.127 0.844t0.826 2.109q0 1.23-0.844 2.039t-2.109 0.809h-16.945q-1.301 0-2.127-0.809t-0.826-2.039z"></path>
</svg>
